<svg xmlns="http://www.w3.org/2000/svg" viewBox="0 0 240 96">
<defs><linearGradient id="g" x1="0" y1="0" x2="0" y2="1"><stop offset="0" stop-color="#FDE047"></stop><stop offset="1" stop-color="#EAB308"></stop></linearGradient></defs>
<ellipse cx="117" cy="84" rx="104" ry="5" fill="rgba(15,23,42,0.10)"></ellipse>
<path d="M10 68 L11 63 Q12 59 20 57 L38 55 L94 44 L106 43 Q112 36 124 35 L136 35 Q146 36 152 41 L160 46 L192 48 L212 45 L216 46 L213 53 Q222 56 222 63 L222 68 Q222 71 216 71 L197 71 A16 16 0 0 0 165 71 L97 71 A16 16 0 0 0 65 71 L16 71 Q10 71 10 68 Z" fill="url(#g)"></path>
<path d="M102 42 Q108 37 122 36 L134 36 Q142 37 148 41 L152 45 Z" fill="#1A1114"></path>
<path d="M142 51 L164 49 L167 60 L145 62 Z" fill="rgba(0,0,0,0.22)"></path>
<path d="M12 60 L28 56 L29 59 L13 62 Z" fill="#DBEAFE"></path>
<g><circle cx="81" cy="67" r="13" fill="#111827"></circle><circle cx="81" cy="67" r="6.5" fill="#1F2937" stroke="#4B5563" stroke-width="2.5"></circle><circle cx="81" cy="67" r="1.8" fill="#4B5563"></circle></g>
<g><circle cx="181" cy="67" r="13" fill="#111827"></circle><circle cx="181" cy="67" r="6.5" fill="#1F2937" stroke="#4B5563" stroke-width="2.5"></circle><circle cx="181" cy="67" r="1.8" fill="#4B5563"></circle></g>
</svg>