<svg xmlns="http://www.w3.org/2000/svg" viewBox="0 0 240 96">
<path fill="currentColor" d="M16 66 L15 58 Q15 51 23 48.5 Q33 42.5 50 40.5 Q60 39.2 68 39.4 Q80 40 90 41.2 Q96 41.6 100 38 L109 27.5 Q114 23.5 123 23.5 Q136 23.5 146 28 Q158 33.5 168 40 Q180 47 196 48 Q210 48.5 220 49 Q225 49.5 225 54 L225 60 Q225 68 214 68.5 L202 68.5 A15 15 0 0 0 172 68.5 L84 68.5 A15 15 0 0 0 54 68.5 L22 68.5 Q16 68.5 16 66 Z M82 67 a13 13 0 1 0 -26 0 a13 13 0 1 0 26 0 Z M200 67 a13 13 0 1 0 -26 0 a13 13 0 1 0 26 0 Z"/>
</svg>
