<svg xmlns="http://www.w3.org/2000/svg" xmlns:xlink="http://www.w3.org/1999/xlink" viewBox="0 0 539.77 157.28"><defs><style>.cls-1{fill:url(#_GS_Yellow_to_Yellow_Lt_Green);}.cls-2{fill:url(#_GS_Yellow_Lt_Green_to_Lt_Green);}.cls-3{fill:url(#_GS_Jade_Lt_Blue_to_Lt_Blue);}.cls-4{fill:url(#_GS_Jade_to_Jade_Lt_Blue);}.cls-5{fill:url(#_GS_Lt_Blue_to_Blue);}.cls-6{fill:url(#_GS_Red_to_Yellow);}.cls-7{fill:url(#_GS_Lt_Green_to_Jade);}.cls-8{fill:#0072bc;}.cls-9{fill:#6d6e71;}</style><linearGradient id="_GS_Yellow_to_Yellow_Lt_Green" x1="-1059.72" y1="-494.34" x2="-1120.1" y2="-433.96" gradientTransform="translate(421.8 232.04) scale(0.38)" gradientUnits="userSpaceOnUse"><stop offset="0" stop-color="#fdb913"/><stop offset="1" stop-color="#c4bf30"/></linearGradient><linearGradient id="_GS_Yellow_Lt_Green_to_Lt_Green" x1="-1121.82" y1="-389.96" x2="-1070.06" y2="-338.19" gradientTransform="translate(421.8 232.04) scale(0.38)" gradientUnits="userSpaceOnUse"><stop offset="0" stop-color="#c4bf30"/><stop offset="1" stop-color="#80c342"/></linearGradient><linearGradient id="_GS_Jade_Lt_Blue_to_Lt_Blue" x1="-754.58" y1="-428.48" x2="-710.56" y2="-384.47" gradientTransform="translate(421.8 232.04) scale(0.38)" gradientUnits="userSpaceOnUse"><stop offset="0" stop-color="#6dcff6"/><stop offset="1" stop-color="#00bac6"/></linearGradient><linearGradient id="_GS_Jade_to_Jade_Lt_Blue" x1="-701.72" y1="-353.51" x2="-746.2" y2="-309.03" gradientTransform="translate(421.8 232.04) scale(0.38)" gradientUnits="userSpaceOnUse"><stop offset="0" stop-color="#00bac6"/><stop offset="1" stop-color="#00a99d"/></linearGradient><linearGradient id="_GS_Lt_Blue_to_Blue" x1="-1034.31" y1="-400.7" x2="-763.79" y2="-400.7" gradientTransform="translate(421.8 232.04) scale(0.38)" gradientUnits="userSpaceOnUse"><stop offset="0" stop-color="#0072bc"/><stop offset="1" stop-color="#6dcff6"/></linearGradient><linearGradient id="_GS_Red_to_Yellow" x1="-1080.42" y1="-547.12" x2="-711.04" y2="-547.12" gradientTransform="translate(421.8 232.04) scale(0.38)" gradientUnits="userSpaceOnUse"><stop offset="0" stop-color="#fdb913"/><stop offset="0.6" stop-color="#f6841c"/><stop offset="1" stop-color="#f26522"/></linearGradient><linearGradient id="_GS_Lt_Green_to_Jade" x1="-1068.33" y1="-268.16" x2="-758.31" y2="-268.16" gradientTransform="translate(421.8 232.04) scale(0.38)" gradientUnits="userSpaceOnUse"><stop offset="0" stop-color="#80c342"/><stop offset="1" stop-color="#00a99d"/></linearGradient></defs><g id="Layer_2" data-name="Layer 2"><g id="Isolation_Mode" data-name="Isolation Mode"><path class="cls-1" d="M16.43,41.88l-5.62-6.2A78.26,78.26,0,0,0,0,75H3.87C3.89,62,8.41,50.19,16.43,41.88Z"/><path class="cls-2" d="M15.43,102.78c-7-6.67-11.56-15.69-11.56-27.73V75H0c0,14.12,2.52,27.24,7.5,38.68Z"/><path class="cls-3" d="M138.76,65l-7.2,7.43c10,.15,16.1,7.85,15.88,17.66h3.88C151.32,80.38,146.78,71.56,138.76,65Z"/><path class="cls-4" d="M151.32,90.06h-3.88c-.18,8.08-4.5,14.86-14.08,19.91l10.11,13.92C148.41,114.77,151.32,103.6,151.32,90.06Z"/><path class="cls-5" d="M20.47,63.67A25.88,25.88,0,0,0,20,68.3c0,23.14,17.25,37.92,39,37.92,41.39,0,53.68-33.83,72.21-33.83h.29l7.2-7.43c-8.94-7.36-22.21-12-38.31-12C67.69,53,50.23,80.37,35.36,80.37c-6.48,0-11.44-7.11-11.44-14A20.05,20.05,0,0,1,24,64.28Z"/><path class="cls-6" d="M46.13,29.73c23.92,0,40.52,18.1,61.87,18.1,25.6,0,39.77-12.47,43.32-36.84l-3.88-.64c-1.08,6.45-5.29,14.21-12.83,14.21-7.11,0-14.65-6.25-25.64-12.28C98,6,85.36,0,69.62,0,44.31,0,23,14.91,10.81,35.68l5.62,6.2C23.69,34.36,33.84,29.73,46.13,29.73Z"/><path class="cls-7" d="M71.13,119.79c-18.52,0-41.95-4-55.7-17L7.5,113.66c11.41,26.26,35.76,43.62,72.26,43.62,24.12,0,50.8-9.55,63.71-33.39L133.36,110C121.47,116.22,101.46,119.79,71.13,119.79Z"/><path class="cls-8" d="M214.91,117.69c-24,0-37.2-15.75-37.2-39S192,39.35,215.35,39.35a46.69,46.69,0,0,1,23.09,5.59l-2.52,16.3c-5.7-3.61-12.37-6.44-20.14-6.44-13,0-19.35,9.61-19.35,23.72S203,102.71,216,102.71a19.84,19.84,0,0,0,10.17-2.42V86.84H213.05l-2.19-13.9h31.61V109.7a49.65,49.65,0,0,1-27.56,8"/><path class="cls-8" d="M278.37,117.14A61.94,61.94,0,0,1,252,111.46l2.73-16c7.77,4.16,16.42,7,24,7,5.35,0,9.08-2.31,9.08-6.79,0-4.27-2.19-6.24-12.81-10.28-15.09-5.8-21.66-10.72-21.66-23.2,0-14.55,11.37-22.32,25.81-22.32,9.87,0,16.21,1.87,22.76,5L299,60.69c-6.77-3.94-13.89-6.12-19.69-6.12s-8.43,2.4-8.43,5.9c0,3.83,2.08,5.7,11.49,9.31,16.43,6,23,11.69,23,23.73,0,16.42-12,23.63-27,23.63"/><polygon class="cls-9" points="387.46 41.29 379.36 41.29 379.36 78.52 387.46 78.52 387.46 62.73 397.17 62.73 397.17 55.45 387.46 55.45 387.46 41.29"/><path class="cls-9" d="M368.28,42.9H330v7.29h28.24a26,26,0,0,1-2.74,7.28H330v6.8h19.85c-5.5,4.66-13.51,7.78-24.15,9.22l3.17,6.15C348.29,77.05,366.67,66.53,368.28,42.9Z"/><path class="cls-9" d="M345.38,101.73h42.08v-20H336.89v7.05h42.47V95.1H337.29v16.59a4.12,4.12,0,0,0,4,4h46.53v-7H345.38Z"/><rect class="cls-9" x="456.19" y="41.29" width="7.85" height="41.26"/><polygon class="cls-9" points="450.29 82.55 450.29 41.29 442.44 41.29 442.44 57.22 432.49 57.22 432.49 64.51 442.44 64.51 442.44 82.55 450.29 82.55"/><path class="cls-9" d="M435.16,72.27H412.27v-8h17v-6.8h-17V50h20.22V42.9H404.17V75.28a4.12,4.12,0,0,0,4.05,4h26.94Z"/><polygon class="cls-9" points="412.27 93.07 455.96 93.07 455.96 115.73 464.05 115.73 464.05 85.79 412.27 85.79 412.27 93.07"/><path class="cls-9" d="M502.38,42.09v9.4c0,16.18-12.46,25.72-26.78,28.31l3.56,6.4a41.85,41.85,0,0,0,27.42-17.8A41.89,41.89,0,0,0,534,86.2l3.55-6.4c-14.31-2.59-26.78-12.13-26.78-28.31v-9.4Z"/><rect class="cls-9" x="473.41" y="101.16" width="66.36" height="7.29"/></g></g></svg>