<svg xmlns="http://www.w3.org/2000/svg" id="_레이어_2" viewBox="0 0 263.48 350.38"><defs><style>.cls-1,.cls-2{fill:#f15a24;stroke-width:0}.cls-2{fill:#fcee21}</style></defs><g id="Layer_1"><path d="M137.61 117.92c.24.38.6.98.94 1.23.26.2.64.27.87.5.24.25.27.7.5.94.36.37.99.6 1.3 1.01.16.22.19.51.36.72.28.34.79.59 1.15.87.44.33.69.98 1.08 1.37.18.18.43.21.65.36.32.22.42.71.72.94.52.4 1.06.76 1.52 1.23.16.17.21.4.36.58.48.56 1.3.92 1.73 1.52.53.72 1.1 1.41 1.73 2.02.09.09.25.07.36.14.27.31.53.63.79.94.24.18.54.27.72.51.35.46.68 1.04 1.15 1.37.29.21.58.3.79.58.32.43.63.93 1.01 1.3.19.18.5.21.65.43.27.39.38.71.72 1.01.28.25.63.35.94.58.42.31.51.99.94 1.3.22.16.5.2.72.36l.72.87c.36.27.96.55 1.37.72 2.15.9 6.19.51 7.72-.65.22-.27.43-.53.65-.79.32-.31.84-.49 1.08-.87.1-.29.19-.58.29-.87.18-.28.54-.52.72-.79.4-.62.56-2.92.36-3.83-.17-.79-.07-1.83-.51-2.53-.28-.45-.83-.84-1.08-1.3-.05-.22-.1-.43-.14-.65-.3-.53-1.17-.72-1.51-1.23-.07-.19-.14-.38-.22-.58-.3-.44-1.01-.75-1.44-1.08-.33-.26-.38-.83-.72-1.08-.42-.31-.94-.5-1.3-.87-.32-.33-.46-.83-.79-1.15-.19-.19-.5-.27-.72-.43-.29-.22-.37-.57-.58-.87-.23-.33-.7-.47-1.01-.72-.37-.29-.58-.7-.87-1.08-.58-.5-1.15-1.01-1.73-1.52-1.23-1.43-2.59-2.69-3.82-4.11-.3-.35-.78-.58-1.15-.87-.33-.25-.48-.59-.72-.94-.39-.56-1.21-.82-1.59-1.37-.07-.19-.14-.38-.22-.58-.27-.41-.86-.72-1.01-1.23-.14-.46.03-1.22.07-1.59.42-.28.44-.51.72-.94.17-.25.53-.35.72-.58.34-.41.61-.8.94-1.23.19-.25.53-.38.79-.58.35-.26.54-.64.79-1.01.22-.32.62-.49.94-.72l1.59-1.8c.36-.25.75-.39 1.01-.72.2-.25.28-.63.5-.87.24-.25.59-.37.87-.58.37-.27.52-.72.79-1.08.28-.37.82-.55 1.16-.87.31-.29.46-.66.72-1.01.24-.32.68-.48 1.01-.72.37-.27.61-.68.87-1.08.25-.4.77-.58 1.15-.87.49-.37.7-1.05 1.15-1.44.17-.14.4-.16.58-.29.43-.31.59-.83.94-1.23.42-.48 1.14-.71 1.51-1.23.71-.97 1.39-1.99 2.02-3.03.43-.71.42-2.66.29-3.68.04-.08-.04-.35-.07-.5v-.79c-.14-.46-.53-.78-.72-1.15-.05-.22-.1-.43-.14-.65-.24-.4-1.57-1.96-1.95-2.16-.55-.29-1.08-.39-1.59-.72-.33-.22-.75-.58-1.15-.72-.76-.27-1.92-.15-2.89-.14-.36.22-.89.13-1.3.29s-.85.59-1.23.79c-.63.34-1.4.39-1.88.87-.38.39-.62.91-1.01 1.3-.2.2-.49.26-.72.43-.36.27-.54.84-.87 1.16-.38.36-.91.58-1.23 1.01-.24.33-.4.7-.72.94-.27.2-.6.32-.79.58-.17.23-.24.5-.43.72-.37.43-.97.68-1.37 1.08-1.07 1.07-1.96 2.33-3.17 3.25-.6.45-.91 1.31-1.51 1.73-.43.3-.93.51-1.23.94-.13.18-.13.44-.29.58-.35.3-.83.47-1.15.79-.24.24-.37.58-.58.87-.37.5-1.01.79-1.44 1.23-.2.2-.26.49-.43.72-.21.29-.61.4-.87.65-.41.4-.7 1.02-1.15 1.37-.88.69-1.53 1.46-2.31 2.24-.26.22-.53.43-.79.65-.33.45-.53.93-.87 1.37-.1.12-.34.17-.43.29-.1.34-.19.67-.29 1.01-.22.35-.72.59-.87 1.01v.65c-.24.96-.55 1.96-.79 2.96V109c-.24 2.64 1.03 5.65 2.24 7.58.34.55 1.04.85 1.37 1.37ZM178.46 115.03c.12.14.39.2.51.36.35.5.51 1.11.87 1.59.28.38.82.63 1.08 1.01.14.21.12.54.29.72.39.44 1.21.65 1.52 1.15.11.18.04.33.14.5.25.42.97.72 1.37 1.01.29.22.35.65.58.94.32.41.92.64 1.3 1.01.19.19.2.42.36.65.3.43 1.17.93 1.59 1.3.12.22.24.43.36.65.31.4.89.7 1.3 1.01.33.25.43.72.72 1.01.3.31.74.53 1.08.79.55.42.93 1.18 1.44 1.66.23.22.61.31.79.58.07.19.14.38.22.58.2.25.67.45.94.65.44.33.66.95 1.08 1.3.54.45 1.13.78 1.59 1.3.22.25.34.56.58.79.32.31.82.5 1.08.87.22.3.29.65.58.87.37.28 1.04.57 1.3.94.17.23.16.6.36.79.28.27.7.42 1.01.65.24.26.48.53.72.79.44.3 1.26.77 1.73.94.44.16 3.25.5 3.82.36.62-.16 1.75-.25 2.38-.5.86-.35 1.04-.77 1.66-1.23 1.33-.98 1.71-1.83 2.31-3.54.27-.78.8-2.04.5-3.39-.11-.5-.73-2.3-1.08-2.81-.14-.21-.45-.35-.58-.58-.09-.16.02-.39-.07-.58-.07-.13-.85-.59-1.01-.72-.41-.32-.56-.72-.87-1.15-.37-.54-1.13-.77-1.59-1.23-.21-.21-.26-.54-.43-.79-.25-.36-.73-.53-1.08-.79-.3-.22-.36-.63-.58-.94-.39-.53-1.18-.72-1.59-1.23-.27-.33-.24-.75-.58-1.01-.39-.29-1.02-.55-1.3-.94-.35-.48-.57-.92-1.01-1.3-.26-.23-.66-.3-.87-.58-.13-.17-.14-.43-.29-.58-.32-.33-.79-.59-1.16-.87-.22-.17-.26-.42-.43-.65-.1-.13-.31-.18-.43-.29-.55-.5-1.07-1.05-1.52-1.66-.31-.26-.62-.53-.94-.79-.94-1.01-1.92-1.9-2.74-3.03-.38-.52-1.01-.72-1.16-1.52-.21-1.17.69-2.12 1.23-2.6.4-.36.68-.79 1.01-1.23.35-.47.89-.8 1.37-1.16.26-.2.38-.53.58-.79.33-.45.85-.66 1.3-1.01.38-.29.6-.89.94-1.23.31-.31.79-.48 1.08-.79.22-.24.24-.59.43-.87.2-.27.66-.38.94-.58.37-.27.59-.72.87-1.08.33-.44.85-.75 1.3-1.08.36-.46.72-.91 1.08-1.37.37-.28.81-.5 1.08-.87.21-.28.33-.56.58-.79.24-.23.51-.31.79-.51.37-.26.52-.71.79-1.08.31-.43.87-.62 1.3-.94.29-.22.36-.64.58-.94.32-.44.91-.57 1.3-.94.26-.25.36-.64.58-.94.26-.35.76-.59 1.01-.94.07-.34.14-.67.22-1.01.2-.4.58-.83.72-1.3.56-1.84.06-3.73-.58-4.98-.24-.46-.03-.77-.29-1.15-.08-.13-.34-.23-.43-.36-.53-.71-1.12-1.48-1.88-1.95-.5-.17-1.01-.34-1.51-.5-.43-.26-.71-.63-1.3-.79-.75-.02-1.49-.05-2.24-.07-.37.23-.84.13-1.3.29-.53.18-.84.66-1.3.87-.47.21-.98.17-1.37.43-.45.3-.72.9-1.15 1.23-.22.17-.49.28-.65.5-.13.18-.17.46-.36.58-.17.1-.36.03-.51.14-.14.11-.11.36-.22.5-.17.25-.51.3-.72.5-.44.42-.72.87-1.08 1.37-.21.29-.57.36-.87.58-.46.33-.61.75-.94 1.23-.35.51-1.14.72-1.52 1.23-.12.16-.1.34-.22.5-.19.28-.53.37-.79.58-.17.13-.22.4-.36.58-.12.15-.34.17-.5.29-.19.14-.22.38-.36.58-.21.28-.58.37-.87.58-.42.31-.6 1.02-.94 1.3-.25.2-.53.25-.79.43-.49.34-.67 1.03-1.08 1.44-.19.19-.49.2-.72.36-.49.33-.75 1.01-1.15 1.44-.36.39-1.29.87-1.59 1.3-.07.19-.14.38-.22.58-.4.47-1.12.66-1.51 1.15-.07.19-.14.39-.22.58-.35.51-1.16.78-1.59 1.23-.16.17-.15.45-.29.65-.35.51-1.16.7-1.52 1.23-.15.22-.14.5-.29.72-.31.29-.62.58-.94.87-.1.31-.19.62-.29.94-.18.31-.53.57-.72.87-.26.4-.51 1.63-.65 2.09-.02.29-.05.58-.07.87-.58 2.23-.38 5.51.51 7.58.14.53.29 1.06.43 1.59ZM215.84 172.47c-.35-.31-.61-.76-1.01-1.01-.58-.36-1.21-.43-1.95-.65-1.64-.47-4.4-.38-5.77.43-.14.08-.24.33-.36.43-.34.3-.82.42-1.16.72-.24.22-.29.54-.5.79-.34.4-.88.77-1.15 1.23-.1.16-.04.29-.14.43-.14.12-.29.24-.43.36-.05.29-.1.58-.14.87-.22.38-.71.58-.94.94-.15.23-.08.53-.22.79-.2.37-.63.73-.87 1.08-.17.26-.19.54-.36.79-.28.4-.93.68-1.15 1.08-.16.28-.05.62-.22.87-.25.37-.76.63-1.01 1.01-1.04 1.55-2.2 2.92-3.32 4.4-.19.25-.54.38-.79.58-.36.27-.41.61-.65 1.01-.15.25-.49.33-.72.5-.19.24-.39.48-.58.72-.13.09-.33.1-.43.22-.14.17-.09.37-.22.58-.3.51-.98.72-1.44 1.08-.19.31-.38.63-.58.94-.47.36-1.03.6-1.44 1.01-.23.23-.28.64-.5.87-.41.41-1.1.53-1.51.94-.33.33-.56.81-.94 1.08-.46.34-1.11.47-1.51.87-.25.24-.28.66-.58.87-.4.28-.82.38-1.23.65-.52.35-.94.94-1.44 1.3-.45.33-.98.49-1.44.79-.42.28-.71.7-1.08 1.01-.34.12-.67.24-1.01.36-.33.22-.6.65-.94.87-.22.14-.54.12-.72.29-.07.07-.06.23-.14.29-.45.31-1.05.36-1.52.65-.7.44-1.46 1.12-2.24 1.44-.31.07-.63.14-.94.22-.66.38-1.36 1.02-2.02 1.37-.62.33-1.39.32-2.02.65-.78.41-1.59 1.09-2.45 1.37-.52.17-.91.04-1.37.22-.22.09-.43.34-.65.43-.45.2-.74.18-1.23.36-.46.17-.96.61-1.44.79-.63.1-1.25.19-1.88.29-.25.09-.59.34-.79.43-.55.24-1.15.06-1.66.29-.67.3-1.36.71-2.16.94-.87.1-1.73.19-2.6.29-1.97.52-3.93.97-5.77 1.44-.82.07-1.64.14-2.45.22h-1.08c-.78.17-1.75 0-2.67.22h-1.15c-.47.1-1.24-.05-1.8.07-.76.17-1.74.07-2.6.07-1.48 0-2.9.02-4.4.07-.33.01-.99-.14-1.3-.22-.91-.22-1.95.04-2.74-.14-1.49-.07-2.98-.14-4.47-.22-1.08-.25-2-.6-2.96-.87-.24-.07-.49-.02-.58 0-.64-.21-1.51-.39-2.16-.58-1.18-.14-2.36-.29-3.54-.43-1.29-.4-2.68-1.19-3.97-1.59-.83-.26-1.76-.08-2.45-.43-.67-.34-1.52-.84-2.24-1.15-.77-.22-1.54-.43-2.31-.65-.74-.33-1.48-.87-2.17-1.23-.49-.26-1.06-.2-1.59-.43-.78-.34-1.6-1-2.31-1.44-.39-.25-.85-.2-1.3-.43-.78-.39-1.55-1.09-2.31-1.51-.48-.27-1.18-.36-1.59-.72-.07-.06-.06-.23-.14-.29-.3-.22-.65-.46-.94-.65-.45-.3-.94-.41-1.37-.72-.19-.14-.32-.44-.51-.58-.19-.05-.38-.1-.58-.14-.23-.14-.42-.43-.65-.58-.34-.21-.68-.28-1.01-.51-.26-.29-.53-.58-.79-.87-.57-.41-1.23-.67-1.8-1.08-.27-.2-.41-.56-.65-.79-.39-.39-.99-.53-1.44-.87-.26-.19-.34-.59-.58-.79-.54-.45-1.17-.73-1.73-1.15-.31-.41-.63-.82-.94-1.23-.24-.18-.54-.19-.79-.36-.58-.4-.87-1.24-1.44-1.66-.29-.22-.66-.36-.87-.65-.24-.33-.33-.76-.65-1.01-.36-.28-.83-.49-1.08-.87-.14-.21-.13-.47-.29-.65-.35-.41-.99-.65-1.3-1.08-.15-.21-.14-.5-.29-.72-.39-.58-1.23-.94-1.59-1.52-.17-.27-.18-.54-.36-.79-.29-.26-.58-.53-.87-.79-.07-.22-.14-.43-.22-.65-.3-.46-.94-.72-1.23-1.15-.07-.27-.14-.53-.22-.79-.25-.4-.78-.67-1.01-1.08-.1-.19-.03-.41-.14-.58-.27-.42-.8-.8-1.08-1.23-.16-.25-.13-.54-.29-.79-.23-.37-.63-.73-.87-1.08-.26-.39-.33-.84-.58-1.23-.17-.27-.52-.47-.65-.79-.02-.17-.05-.34-.07-.5-.25-.45-.96-.77-1.37-1.08-.18-.14-.26-.43-.43-.58-1.1-.93-3.04-1.31-5.12-1.3-.55.37-1.87.3-2.53.58-.69.3-2.47 1.72-2.89 2.31-.17.24-.16.64-.36.87-.11.12-.35.21-.43.36-.88 1.59-.75 5.14-.07 6.85.17.43.78.74 1.01 1.16.05.22.1.43.14.65.19.42.59.87.87 1.23.19.23.19.54.36.79.24.36.7.66.94 1.01l.36 1.08c.34.31.67.63 1.01.94.02.17.05.34.07.5.12.24.49.49.65.72.3.45.47.93.79 1.37.25.34.7.58.94.94.1.26.19.53.29.79.19.27.95.79 1.23 1.08.21.23.25.61.43.87.46.43.91.87 1.37 1.3.25.34.4.66.65 1.01.26.22.53.43.79.65.29.41.5.76.79 1.15l.87.72c.18.27.18.6.43.79.35.27.78.48 1.08.79.21.21.18.54.36.79.18.26.62.31.87.51.45.35.69.9 1.08 1.3.46.46 1.08.73 1.59 1.15.22.31.43.63.65.94.45.34 1.27.62 1.59 1.08.24.34.32.7.65.94.46.33 1.05.47 1.44.87.25.25.37.66.65.87.44.32.98.41 1.44.72.17.12.22.36.36.5.29.29 1.32 1.11 1.66 1.3.24.14.5.07.72.22.12.22.24.43.36.65.15.12.32.06.5.14.22.1.32.38.51.51.24.07.48.14.72.22.64.38 1.18.97 1.73 1.44.41.35 1.06.42 1.52.72.14.17.29.34.43.5.24.17.54.19.79.36.15.1.27.35.43.43.44.24.88.25 1.3.5.65.39 1.31.99 1.95 1.37.46.27 1.04.29 1.52.51.66.31 1.24.96 1.88 1.3.62.33 1.34.33 1.95.65.15.08.24.35.36.43.29.05.58.1.87.14.34.16.69.49 1.01.65.46.24.96.22 1.44.43.21.09.34.33.51.43.31.19.98.28 1.52.51.33.14.74.45 1.08.58.6.1 1.2.19 1.8.29.48.18.81.66 1.23.87.05.02.24-.06.43 0 .73.24 1.49.52 2.24.72.59.16 1.01.02 1.52.22.61.23 1.14.72 1.73.94.46.05.91.1 1.37.14.6.15 1.17.35 1.73.5.58.05 1.16.1 1.73.14.98.26 1.85.68 2.81.94.36.02.72.05 1.08.07 1.73.43 3.73.36 5.56.79h1.37c.66.02 1.56.07 2.17.22h.94c1.08.24 2.43.2 3.54.43.28.06.71-.1 1.15 0 1.88.42 4.39.42 6.35-.07h1.37c1.03-.24 2.05-.17 3.17-.43h1.01c1.53-.35 3.08 0 4.62-.36.46-.02.91-.05 1.37-.07.97-.24 1.95-.36 2.81-.58.46-.05.91-.1 1.37-.14.68-.24 1.42-.58 2.24-.79.67-.07 1.35-.14 2.02-.22.72-.19 1.55-.45 2.24-.65.31-.02.63-.05.94-.07.43-.14.79-.55 1.23-.72.47-.18.84-.08 1.37-.22.47-.12.97-.36 1.37-.51.55-.2 1.02-.09 1.59-.29.43-.15.83-.55 1.23-.72 1.27-.56 2.61-.75 3.83-1.3.31-.22.62-.43.94-.65.5-.2 1.1-.12 1.59-.36.32-.16.66-.53 1.01-.65h.58c.51-.17.85-.74 1.37-.94 1.35-.5 2.31-.86 3.32-1.66.48-.19.96-.38 1.44-.58.2-.13.37-.46.58-.58.22-.05.43-.1.65-.14.14-.17.29-.34.43-.51.46-.3 1.05-.28 1.52-.58.48-.31.95-.84 1.37-1.15.43-.32.97-.3 1.44-.58.67-.39 1.17-1.1 1.8-1.51.19-.12.34-.05.58-.14.34-.14.58-.47.87-.65.14-.05.29-.1.43-.14.24-.22.39-.59.65-.79.63-.48 1.41-.73 2.02-1.23.17-.14.25-.44.43-.58.39-.29.83-.44 1.23-.72.54-.39.89-1.07 1.44-1.44.39-.26.78-.38 1.15-.65s.51-.82.87-1.08c.46-.34 1.19-.55 1.52-1.01.17-.25.2-.54.43-.72.4-.31 1.02-.5 1.37-.87.26-.27.28-.78.58-1.01.43-.34 1.05-.57 1.37-1.01.29-.39.41-.87.79-1.15.29-.22.8-.35 1.01-.65.07-.22.14-.43.22-.65.34-.51 1.09-.73 1.44-1.23.07-.19.14-.39.22-.58l1.52-1.37c.65-1.1 1.41-1.96 2.16-2.96.22-.19.43-.38.65-.58.07-.22.14-.43.22-.65.28-.47.92-.82 1.23-1.3.05-.17.1-.34.14-.5.23-.38.68-.66.94-1.01.2-.28.23-.64.43-.94.17-.14.34-.29.51-.43.31-.43.43-.9.72-1.37.27-.43.74-.75 1.01-1.15.15-.23.08-.54.22-.79.18-.34.62-.57.87-.87.24-.29.16-.83.36-1.16.16-.26.49-.47.65-.72.2-.32.13-.78.29-1.16.16-.4.48-.8.58-1.3.47-2.42-.7-4.99-1.66-6.28-.19-.26-.55-.36-.79-.58ZM46.04 129.97c.28.34.84.51 1.08.87.17.25.19.55.36.79.31.44.85.7 1.23 1.08.35.36.57.88.94 1.23.17.16.45.15.65.29.46.32.75.92 1.15 1.3.27.25.63.35.94.58.34.25.48.73.79 1.01.25.22 1.24.52 1.59.72.77.45 1.41 1.07 2.16 1.52.58.19 1.15.39 1.73.58.33.2.6.63.94.79.24.02.48.05.72.07.39.13.83.44 1.23.58.8.27 1.53.24 2.31.5.45.15.84.55 1.3.72.86.31 1.74.24 2.67.43 1.68.35 3.93.29 6.21.29.94 0 2.28.04 2.89-.07 1.09-.21 1.99.04 3.03-.22.68-.17 1.55-.34 2.24-.5.19-.05.24.09.51 0 .58-.2.98-.66 1.59-.87.43-.07.87-.14 1.3-.22.4-.12.74-.44 1.08-.58.44-.17.85-.08 1.23-.29.21-.12.31-.45.5-.58.52-.35 1.22-.27 1.8-.58.49-.26 1.06-.67 1.52-1.01.14-.11.27-.35.43-.43.32-.17.66-.1.94-.29.27-.18.49-.51.72-.72.5-.47 1.17-.75 1.73-1.15.77-.56 1.33-1.47 2.09-2.02.14-.1.37-.1.5-.22.26-.24.32-.7.58-.94.1-.03.19-.05.29-.07.52-.37.85-1.13 1.23-1.66.26-.37.74-.64 1.01-1.01.29-.4.4-.93.72-1.3.21-.23.65-.45.79-.72.15-.28.06-.55.22-.79.19-.3.58-.59.72-.94.05-.29.1-.58.14-.87.18-.34.61-.65.79-1.01.05-.24.1-.48.14-.72.18-.41.58-.83.72-1.3.05-.16-.1-.25 0-.58.48-1.52 1.31-3.5 1.66-4.98.05-.77.1-1.54.14-2.31.15-.65.19-1.91.22-2.82.01-.35-.17-1.04-.07-1.51.09-.42.06-.93-.07-1.44-.02-.79-.05-1.59-.07-2.38-.12-.58-.27-1.66-.51-2.53-.14-.53-.3-1.5-.58-2.17-.09-.21-.35-.34-.43-.58-.18-.51-.05-.95-.22-1.52-.14-.47-.57-.81-.72-1.23-.02-.22-.05-.43-.07-.65-.2-.47-.75-.78-.94-1.23-.02-.22-.05-.43-.07-.65-.17-.39-.61-.74-.79-1.08-.15-.27-.06-.62-.22-.87l-.87-.72c-.19-.26-.17-.66-.36-.94-.3-.46-.92-.78-1.23-1.23-1.68-2.46-3.8-4.4-6.28-6.06-.28-.19-.51-.54-.79-.72-.34-.22-.72-.22-1.08-.43-.35-.21-.78-.81-1.23-1.08-.47-.29-1.01-.32-1.52-.58-.98-.51-1.97-1.2-3.1-1.59-.53-.18-.96-.09-1.44-.29s-.95-.63-1.44-.79c-.36-.05-.72-.1-1.08-.14-.77-.2-1.68-.38-2.45-.58-.58-.15-1.22-.02-1.73-.14-.78-.19-1.67.03-2.38-.14-1.36-.33-3.81.28-4.98 0-.65.37-2.59.04-3.54.29-.77.2-1.7.42-2.45.65-.27.08-.88.03-1.3.22-.41.19-.88.63-1.37.79-.85.28-1.54.26-2.31.58-.56.23-.97.86-1.52 1.08-.45.18-.87.14-1.3.36-.71.37-1.44 1.01-2.09 1.44-.52.34-1.1.44-1.59.79-.19.14-.26.43-.43.58-.67.56-1.48.91-2.16 1.44-.26.2-.31.67-.58.87-.45.33-.98.64-1.3 1.08-.15.21-.19.47-.36.65-.4.41-.98.74-1.3 1.23-.05.17-.1.34-.14.5-.31.47-1.03.72-1.3 1.23-.11.21-.03.39-.14.58-.14.23-.45.41-.58.65-.33.59-.54 1.07-.87 1.66-.14.26-.51.48-.65.72-.05.26-.1.53-.14.79-.16.36-.52.7-.72 1.01-.16.25-.1.48-.22.79-.13.35-.42.76-.58 1.08-.4.84-.41 1.68-.72 2.6-1.08 3.16-1.94 8.83-1.01 12.41v.65c.21.88.28 2.06.5 2.89.02.26.05.53.07.79.16.35.52.74.65 1.15.17.58.03 1.01.22 1.52.16.44.49.96.65 1.37.2.5.23 1.01.51 1.44.15.23.44.47.58.72.17.32.13.65.29 1.01.22.5.74.92 1.01 1.37.07.22.14.43.22.65.23.35.64.67.87 1.01.12.34.24.67.36 1.01Zm10.61-24.17c.05-.24.1-.48.14-.72.19-.42.62-.84.79-1.3.02-.19.05-.38.07-.58.06-.15.28-.3.36-.43.29-.48.34-.99.65-1.44.41-.39.82-.77 1.23-1.16.07-.22.14-.43.22-.65.19-.14.38-.29.58-.43.55-.54 1.02-1.28 1.66-1.73.34-.24.82-.27 1.15-.5.54-.38 1.25-1.2 1.8-1.44.51-.1 1.01-.19 1.52-.29.17-.07.34-.3.5-.36.53-.22.96-.16 1.52-.36.48-.17.95-.49 1.44-.65.45-.14 1.81 0 2.16-.22 1.43-.03 3.28-.22 4.47.14 1.02.31 2.14.93 3.1 1.3.78.3 1.88.3 2.53.72.14.22.29.43.43.65.7.49 1.49.73 2.17 1.23.22.29.43.58.65.87 1.35.93 2.13 2.09 3.03 3.46.45.69 1.86 2.77 1.66 3.68.63 1.69 1.32 4.43.79 6.64v1.08c-.17.8-.45 1.86-.72 2.67-.16.47-.05.84-.22 1.23-.13.3-.42.48-.58.72-.05.22-.1.43-.14.65-.16.39-.58.68-.79 1.01-.12.34-.24.67-.36 1.01-.36.34-.72.67-1.08 1.01-.19.25-.25.54-.43.79-.29.4-.9.64-1.3.94-.48.36-.84.98-1.37 1.3-.42.25-.85.3-1.23.58-.42.31-.8.75-1.3 1.01-.54.28-1.11.22-1.73.43-.37.13-.83.43-1.15.58-.48.21-.96.12-1.44.29-.4.14-.82.45-1.3.58h-2.45c-.92 0-1.83.12-2.67-.14-.39-.12-.83-.43-1.23-.58-.46-.17-1.3-.04-1.73-.22-.18-.07-.39-.36-.58-.43a65 65 0 0 1-1.37-.22c-.88-.35-1.51-1.04-2.24-1.52-.4-.26-.9-.3-1.3-.58-.25-.17-.28-.61-.51-.79-.14-.05-.29-.1-.43-.14-.19-.22-.38-.43-.58-.65-.21-.16-.56-.23-.72-.43-.16-.21-.14-.5-.29-.72-.34-.5-.95-.88-1.3-1.37-.28-.39-.39-.81-.65-1.23-.07-.12-.3-.25-.36-.36-.22-.41-.15-.9-.36-1.3-.12-.23-.46-.43-.58-.65-.32-.59-.27-1.32-.43-2.02-.07-.32-.31-1.06-.43-1.52-.02-.58-.05-1.15-.07-1.73-.37-1.72.31-4.5.79-5.7Z" class="cls-2"/><path d="M260.94.08H151.9c-8.53 0-17.58-.11-25.76-.07-.59.37-1.77.04-2.53.22-1.51.35-3.58.2-5.27.58-1.08.05-2.16.1-3.25.14-.54.12-1.22.1-1.8.29-.57.18-1.47.65-2.16.65-1.33 0-3.14.41-4.4.72-.91.07-1.83.14-2.74.22-1.58.42-3.22 1.05-4.83 1.52-1 .29-2.1.12-3.03.43-1.21.4-2.61 1.07-3.82 1.52l-2.38.36c-.33.14-.59.41-.87.58-.47.28-1 .27-1.52.5-.16.07-.34.29-.5.36-.66.28-1.57.16-2.24.43-.42.17-.88.61-1.3.79-1.07.48-2.11.64-3.25 1.08-.79.3-1.59.91-2.31 1.3-.51.28-.99.21-1.59.43-.65.25-1.43.85-2.02 1.23-.49.32-1.07.32-1.52.5-1 .41-1.94 1.12-2.81 1.66-.47.29-1.14.3-1.59.58-2.88 1.8-5.73 3.59-8.73 5.27-.69.39-1.24 1.09-1.88 1.52-.28.19-.66.18-.94.36-.47.31-.83.84-1.3 1.15-.42.28-.88.42-1.3.72-.48.34-.9.89-1.37 1.23s-.98.53-1.44.87c-.44.32-.78.84-1.23 1.15-.39.28-.89.39-1.23.72-.35.35-.6.79-1.01 1.08-.39.28-.89.46-1.23.79-.36.35-.6.86-1.01 1.15-.36.26-.78.35-1.08.65-.34.34-.53.88-.94 1.15-.22.15-.5.14-.72.29-.43.29-.65.79-1.01 1.15-.32.33-.71.52-1.08.79-.32.24-.48.61-.72.94-.32.44-.93.82-1.37 1.16-.26.36-.53.72-.79 1.08-1.88 1.39-3.43 3.25-4.83 5.12-.34.45-.95.76-1.3 1.23-.26.35-.38.82-.72 1.08-.35.27-.84.57-1.08.94-.07.22-.14.43-.22.65-.41.38-.82.77-1.23 1.15-.11.16-.05.32-.14.51-.24.45-.78.81-1.08 1.23-.18.25-.25.54-.43.79-.3.42-.86.72-1.15 1.15-.15.22-.14.5-.29.72-.26.38-.74.7-1.01 1.08-.19.36-.38.72-.58 1.08-.21.29-.6.51-.79.79-.15.22-.14.5-.29.72-.12.1-.24.19-.36.29-.31.45-.45.9-.72 1.37-.24.43-.72.82-1.01 1.23-.19.27-.19.55-.36.87-.21.39-.65.71-.87 1.08-.07.26-.14.53-.22.79-.23.36-.71.62-.94 1.01-.02.14-.05.29-.07.43-.11.27-.38.49-.51.72-.02.14-.05.29-.07.43-.2.38-.63.77-.87 1.15-.35.57-.43 1.25-.79 1.8-.44.66-.95 1.39-1.37 2.09-.28.47-.35.91-.58 1.44-.31.72-.85 1.38-1.15 2.09-.05.22-.1.43-.14.65-.73 1.62-1.76 3.33-2.45 4.98-.23.54-.19.98-.43 1.52-.17.37-.57.82-.72 1.23-.02.24-.05.48-.07.72-.13.38-.5.78-.65 1.15-.19.45-.12.84-.29 1.3-.17.48-.53.97-.72 1.44-.07.38-.14.77-.22 1.15-.19.53-.54 1.07-.72 1.59-.2.57-.09 1.06-.29 1.59-.49 1.32-1.09 2.76-1.52 4.11-.07.43-.14.87-.22 1.3-.23.8-.51 1.71-.72 2.53-.05.41-.1.82-.14 1.23-.23.77-.58 1.58-.79 2.38-.2.71-.15 1.6-.29 2.16-.14.53-.29 1.06-.43 1.59-.07.72-.14 1.44-.22 2.17-.26 1.06-.47 2.21-.72 3.17-.45 1.72-.29 3.85-.65 5.41-.32 1.39-.06 2.91-.36 4.26v1.3c-.34 1.52-.14 3.54-.14 5.27-.02 1.76-.05 3.51-.07 5.27.2.88.07 2.17.07 3.18 0 .54.09 1.31.07 1.73-.05 1.38-.01 3.45.29 4.84v1.15c.21.95.17 1.74.36 2.6v1.16c.18.77.08 1.35.29 2.16.28 1.09.53 2.3.79 3.39.05.58.1 1.15.14 1.73.19.79.36 1.8.58 2.53v.79c.13.56.12 1.18.29 1.8.15.54.5 1.07.65 1.59.23.79.15 1.39.36 2.16.12.43.39.95.5 1.37.23.82.12 1.52.36 2.31.15.49.58.96.72 1.44v.65c.19.66.56 1.37.79 2.02.2.56.15 1.09.36 1.66.34.93.84 2.01 1.23 2.89.24.54.22 1.01.43 1.59.22.6.63 1.25.87 1.8.1.41.19.82.29 1.23.15.3.54.69.65 1.01.02.26.05.53.07.79.15.36.47.7.65 1.01.07.29.14.58.22.87.17.4.54.79.72 1.15.05.22.1.43.14.65.37.87.76 1.69 1.15 2.6.31.71.91 1.5 1.3 2.16.07.26.14.53.22.79.15.35.46.71.65 1.01.1.26.19.53.29.79.2.32.52.68.72 1.01.29.48.36 1.05.65 1.51.44.7 1.08 1.46 1.52 2.16.07.29.14.58.22.87.24.4.68.76.94 1.15.49.75.73 1.58 1.23 2.31.3.44.89.83 1.15 1.3.17.3.09.68.29.94.27.34.7.64.94 1.01.56.85.99 1.7 1.59 2.53.31.29.63.58.94.87.21.29.23.71.43 1.01.3.44.84.79 1.15 1.23 1.03 1.42 2.18 2.68 3.1 4.19.31.5 1.04.76 1.37 1.23.15.21.14.44.29.65.19.28.56.53.79.79.17.19.52.28.65.5.07.22.14.43.22.65.24.19.48.38.72.58.41.41.73.83 1.08 1.3.48.46.96.91 1.44 1.37.52.69 1.3 1.13 1.8 1.8.23.3.37.62.65.87 3.75 3.23 7.19 6.67 11.26 9.6.43.31.73.85 1.15 1.15.37.27.73.33 1.15.58.18.1.95.7 1.08.87.1.12.1.27.22.36.47.35 1.01.46 1.52.79.42.28.77.76 1.15 1.08.48.4 1.13.51 1.66.87.43.29.81.79 1.23 1.08.72.5 1.65.66 2.38 1.15.41.28.69.81 1.15 1.08.53.31 1.11.32 1.59.65.42.29.77.82 1.23 1.08.51.29 1.1.28 1.59.58.71.44 1.44 1.12 2.24 1.44.59.24 1.1.26 1.59.58.62.41 1.33 1 2.02 1.3.24.05.48.1.72.14.53.22 1.06.46 1.66.72.43.19.78.67 1.23.87.22.02.43.05.65.07.44.13.92.46 1.3.65.19.02.39.05.58.07.52.2 1 .72 1.52.94l1.37.36c.33.14.76.44 1.08.58.26.02.53.05.79.07.37.13.73.5 1.08.65.51.22.96.19 1.52.36.82.31 1.64.63 2.45.94H90c.43.13.83.5 1.23.65.71.25 1.34.2 2.02.43.48.16.99.46 1.44.65.59.24 1.06.08 1.66.29.41.15 1 .43 1.44.58.72.1 1.44.19 2.16.29.49.14 1.03.43 1.52.58.54.17 1.3.1 1.66.22.31.1.76.34 1.08.43 1.21.36 2.59.32 3.68.58h.72c.72.18 1.33.54 2.02.72.55.14 1.11-.05 1.37 0 1.25.23 2.77.36 4.04.65 1.45.33 3.14.05 4.55.36 2.31.07 4.62.14 6.93.22.97.23 2.9.3 3.97.07h1.66c1.36 0 3.11.04 4.04-.14h1.52c1.44-.05 2.89-.1 4.33-.14 1.4-.1 2.79-.19 4.19-.29 1.07-.25 2.34-.32 3.46-.58.43-.03.87-.05 1.3-.07 1-.25 2.04-.56 2.96-.79.7-.05 1.39-.09 2.09-.14.89-.22 2.05-.54 2.81-.72.78-.19 1.54-.03 2.24-.29.35-.13.79-.44 1.15-.58.89-.14 1.78-.29 2.67-.43 2.86-1.04 6.69-1.72 9.45-3.1.74-.37 1.66-.32 2.38-.65.39-.17.81-.55 1.23-.72.22-.02.43-.05.65-.07.4-.14.89-.49 1.3-.65.43-.1.87-.19 1.3-.29.26-.1.5-.37.72-.5.45-.28.9-.27 1.44-.5.32-.14.74-.45 1.08-.58.29-.05.58-.1.87-.14.48-.2.78-.67 1.23-.87.81-.36 1.44-.53 2.31-.87.76-.3 1.49-.95 2.16-1.37.54-.34 1.22-.31 1.8-.65.34-.2.56-.59.87-.79l.51-.15c.41-.21.86-.53 1.3-.72.27-.07.53-.14.79-.22.44-.26.81-.73 1.23-1.01.51-.34 1.02-.42 1.59-.72.71-.38 1.29-1.03 1.95-1.44.5-.32 1.09-.41 1.59-.72.47-.3.83-.84 1.3-1.15.39-.26.84-.33 1.23-.58.41-.26.69-.73 1.08-1.01.59-.42 1.27-.66 1.88-1.08.4-.28.67-.8 1.08-1.08.49-.32 1.06-.46 1.52-.79.29-.31.58-.62.87-.94 1.4-1.04 2.72-2.06 4.11-3.1.29-.31.58-.63.87-.94.96-.72 1.77-1.51 2.74-2.24.19-.14.26-.42.43-.58.48-.45.99-.82 1.52-1.23.23-.18.34-.54.58-.72.62-.47 1.34-.97 1.8-1.59.28-.37.57-.81.94-1.08 1.03-.78 1.98-1.84 2.74-2.89.12-.17.36-.22.5-.36.11-.12.12-.3.22-.43.16-.2.49-.31.65-.5.15-.19.15-.44.29-.65.37-.53 1.15-.83 1.52-1.37.14-.21.14-.45.29-.65.31-.42.93-.65 1.23-1.08.19-.28.24-.6.43-.87.29-.4.87-.61 1.16-1.01.15-.21.14-.5.29-.72.28-.42.78-.75 1.08-1.16.35-.47.59-.96.94-1.44.14-.12.29-.24.43-.36.22-.31.28-.71.5-1.01.29-.26.58-.53.87-.79.19-.27.24-.6.43-.87.25-.35.69-.66.94-1.01.17-.36.34-.72.5-1.08.2-.27.6-.45.79-.72.05-.22.1-.43.14-.65.12-.24.43-.49.58-.72.05-.14.1-.29.14-.43 2.69-4 5.36-8.17 7.36-12.84.34-.8 1.02-1.49 1.37-2.31.29-.68.34-1.35.65-2.02.2-.44.64-.84.87-1.3.13-.27.03-.49.14-.79.15-.39.58-.81.72-1.23.03-.26.05-.53.07-.79.15-.4.56-.79.72-1.16v-.43c.18-.51.61-1.03.79-1.52.28-.73.29-1.42.58-2.16.22-.36.43-.72.65-1.08.07-.34.14-.67.22-1.01.16-.32.46-.79.58-1.16.16-.5 0-.91.14-1.37.41-1.32 1.11-2.85 1.59-4.11l.36-2.53c.58-1.59 1.12-3.58 1.59-5.2.22-.75.01-1.54.22-2.38.2-.83.43-1.93.65-2.81v-.72c1.91-7.54 1.95-16.6 1.95-26.48V7.37c0-1.73-.16-3.93 0-5.41.05-.49 0-1.24-.22-1.52-.34-.48-1.5-.36-2.31-.36Zm-83.42 105.79c.02-.29.05-.58.07-.87.13-.46.39-1.7.65-2.09.19-.29.54-.56.72-.87.1-.31.19-.62.29-.94.31-.29.62-.58.94-.87.15-.22.14-.5.29-.72.36-.53 1.16-.72 1.52-1.23.14-.2.12-.48.29-.65.43-.45 1.24-.72 1.59-1.23.07-.19.14-.38.22-.58.4-.49 1.11-.68 1.51-1.15.07-.19.14-.38.22-.58.3-.43 1.22-.91 1.59-1.3.4-.43.67-1.11 1.15-1.44.23-.16.53-.17.72-.36.42-.42.59-1.1 1.08-1.44.27-.18.55-.24.79-.43.34-.28.52-.99.94-1.3.29-.21.66-.3.87-.58.14-.19.17-.44.36-.58.16-.12.38-.13.5-.29.14-.18.19-.44.36-.58.27-.21.6-.3.79-.58.12-.16.1-.35.22-.5.37-.51 1.16-.71 1.52-1.23.33-.48.48-.9.94-1.23.3-.21.66-.29.87-.58.37-.5.65-.95 1.08-1.37.21-.21.55-.26.72-.5.1-.15.08-.4.22-.5.15-.12.34-.04.51-.14.19-.12.23-.4.36-.58.16-.22.43-.34.65-.5.43-.33.71-.93 1.15-1.23.4-.27.91-.22 1.37-.43.46-.2.77-.68 1.3-.87.45-.16.93-.06 1.3-.29.75.02 1.49.05 2.24.07.59.17.86.53 1.3.79.5.17 1.01.34 1.51.5.76.47 1.35 1.24 1.88 1.95.1.13.35.23.43.36.26.38.05.69.29 1.15.63 1.25 1.14 3.14.58 4.98-.14.47-.53.9-.72 1.3-.07.34-.14.67-.22 1.01-.25.35-.75.59-1.01.94-.22.3-.32.69-.58.94-.39.37-.98.5-1.3.94-.22.3-.29.72-.58.94-.42.32-.99.51-1.3.94-.27.37-.42.82-.79 1.08-.28.2-.56.28-.79.51-.25.23-.37.51-.58.79-.28.37-.71.59-1.08.87-.36.46-.72.91-1.08 1.37-.44.33-.97.64-1.3 1.08-.28.36-.5.82-.87 1.08-.28.2-.74.3-.94.58-.2.27-.21.63-.43.87-.29.32-.78.49-1.08.79-.34.34-.56.94-.94 1.23-.45.34-.97.56-1.3 1.01-.2.27-.31.6-.58.79-.48.36-1.02.69-1.37 1.16-.33.44-.61.87-1.01 1.23-.54.48-1.43 1.43-1.23 2.6.14.8.78 1 1.16 1.52.83 1.13 1.8 2.02 2.74 3.03.31.26.62.53.94.79.45.61.96 1.16 1.52 1.66.12.11.34.16.43.29.17.23.21.48.43.65.37.28.83.54 1.16.87.15.15.16.41.29.58.21.28.61.35.87.58.44.38.66.81 1.01 1.3.28.39.91.65 1.3.94.34.26.31.68.58 1.01.41.51 1.2.7 1.59 1.23.22.31.28.71.58.94.35.27.83.43 1.08.79.18.26.22.58.43.79.46.46 1.21.69 1.59 1.23.3.44.46.84.87 1.15.17.13.95.59 1.01.72.09.19-.02.42.07.58.13.23.44.37.58.58.35.52.97 2.32 1.08 2.81.3 1.35-.23 2.62-.5 3.39-.6 1.7-.98 2.56-2.31 3.54-.62.46-.79.87-1.66 1.23-.63.26-1.76.35-2.38.5-.57.14-3.38-.2-3.82-.36-.47-.17-1.3-.64-1.73-.94-.24-.27-.48-.53-.72-.79-.31-.23-.73-.38-1.01-.65-.2-.2-.19-.56-.36-.79-.26-.37-.93-.66-1.3-.94-.29-.22-.36-.57-.58-.87-.26-.36-.76-.56-1.08-.87-.24-.23-.36-.54-.58-.79-.46-.52-1.05-.85-1.59-1.3-.42-.35-.64-.96-1.08-1.3-.26-.2-.74-.39-.94-.65-.07-.19-.14-.38-.22-.58-.18-.27-.56-.36-.79-.58-.51-.48-.89-1.24-1.44-1.66-.35-.26-.78-.49-1.08-.79-.29-.29-.39-.76-.72-1.01-.41-.31-.99-.61-1.3-1.01-.12-.22-.24-.43-.36-.65-.42-.37-1.29-.86-1.59-1.3-.16-.23-.17-.46-.36-.65-.38-.37-.98-.6-1.3-1.01-.23-.29-.28-.72-.58-.94-.4-.29-1.12-.59-1.37-1.01-.11-.18-.04-.33-.14-.5-.31-.5-1.12-.72-1.52-1.15-.17-.19-.14-.51-.29-.72-.26-.38-.8-.63-1.08-1.01-.36-.48-.52-1.08-.87-1.59-.11-.16-.38-.22-.51-.36-.14-.53-.29-1.06-.43-1.59-.88-2.07-1.09-5.35-.51-7.58Zm-43.52 3.1v-2.17c.24-1 .55-2 .79-2.96v-.65c.14-.41.64-.66.87-1.01.1-.34.19-.67.29-1.01.09-.12.34-.16.43-.29.33-.44.53-.92.87-1.37.26-.22.53-.43.79-.65.78-.78 1.43-1.54 2.31-2.24.45-.35.75-.97 1.15-1.37.25-.25.65-.36.87-.65.17-.23.23-.52.43-.72.44-.44 1.08-.73 1.44-1.23.21-.28.33-.62.58-.87.33-.32.81-.5 1.15-.79.16-.14.16-.4.29-.58.3-.43.79-.64 1.23-.94.61-.42.92-1.28 1.51-1.73 1.22-.92 2.11-2.17 3.17-3.25.4-.4 1-.65 1.37-1.08.19-.22.26-.49.43-.72.2-.26.53-.38.79-.58.32-.24.48-.61.72-.94.31-.43.84-.65 1.23-1.01.33-.31.51-.89.87-1.16.23-.17.52-.23.72-.43.39-.38.63-.91 1.01-1.3.47-.48 1.25-.53 1.88-.87.38-.2.82-.63 1.23-.79s.94-.07 1.3-.29c.96 0 2.13-.12 2.89.14.4.14.83.51 1.15.72.51.33 1.04.43 1.59.72.38.2 1.71 1.76 1.95 2.16.05.22.1.43.14.65.19.37.58.69.72 1.15v.79c.03.15.11.43.07.5.14 1.02.14 2.96-.29 3.68-.63 1.04-1.31 2.06-2.02 3.03-.38.52-1.1.75-1.51 1.23-.35.4-.51.91-.94 1.23-.18.13-.41.14-.58.29-.46.4-.66 1.08-1.15 1.44-.38.28-.9.47-1.15.87s-.5.81-.87 1.08c-.33.24-.77.4-1.01.72-.26.35-.41.72-.72 1.01-.34.32-.87.5-1.16.87-.28.37-.43.81-.79 1.08-.28.21-.63.33-.87.58-.22.23-.31.61-.5.87-.26.34-.65.47-1.01.72l-1.59 1.8c-.32.24-.71.4-.94.72-.26.37-.44.75-.79 1.01-.26.19-.6.32-.79.58-.33.43-.59.82-.94 1.23-.19.22-.55.33-.72.58-.29.42-.3.66-.72.94-.04.37-.21 1.13-.07 1.59.15.5.74.82 1.01 1.23.07.19.14.38.22.58.38.55 1.2.81 1.59 1.37.24.34.39.69.72.94.37.28.85.52 1.15.87 1.24 1.43 2.59 2.68 3.82 4.11.58.5 1.16 1.01 1.73 1.52.28.39.5.79.87 1.08.31.25.78.4 1.01.72.21.3.29.65.58.87.22.17.53.24.72.43.33.32.47.82.79 1.15.36.37.88.55 1.3.87.34.25.39.83.72 1.08.43.33 1.14.64 1.44 1.08.07.19.14.38.22.58.35.51 1.21.7 1.51 1.23.05.22.1.43.14.65.25.46.8.85 1.08 1.3.43.69.33 1.74.51 2.53.2.9.04 3.21-.36 3.83-.18.27-.54.52-.72.79-.1.29-.19.58-.29.87-.25.38-.76.55-1.08.87-.22.26-.43.53-.65.79-1.53 1.16-5.57 1.55-7.72.65-.41-.17-1.01-.45-1.37-.72l-.72-.87c-.23-.16-.5-.2-.72-.36-.43-.31-.52-.99-.94-1.3-.31-.23-.66-.33-.94-.58-.34-.3-.45-.62-.72-1.01-.15-.22-.46-.25-.65-.43-.38-.37-.69-.87-1.01-1.3-.21-.28-.5-.37-.79-.58-.47-.33-.8-.91-1.15-1.37-.18-.23-.48-.33-.72-.51l-.79-.94c-.11-.08-.27-.05-.36-.14-.63-.61-1.21-1.3-1.73-2.02-.43-.59-1.25-.95-1.73-1.52-.16-.18-.2-.41-.36-.58-.46-.46-1-.83-1.52-1.23-.3-.23-.4-.72-.72-.94-.22-.15-.47-.18-.65-.36-.39-.39-.64-1.04-1.08-1.37-.36-.27-.87-.52-1.15-.87-.17-.21-.2-.5-.36-.72-.31-.41-.93-.64-1.3-1.01-.24-.24-.27-.69-.5-.94-.23-.23-.6-.31-.87-.5-.34-.25-.7-.85-.94-1.23-.33-.52-1.03-.82-1.37-1.37-1.21-1.92-2.47-4.93-2.24-7.58ZM44.6 127.3c-.27-.45-.79-.87-1.01-1.37-.16-.36-.11-.69-.29-1.01-.14-.25-.43-.49-.58-.72-.28-.43-.31-.94-.51-1.44-.16-.41-.49-.93-.65-1.37-.19-.51-.04-.94-.22-1.52-.13-.41-.49-.8-.65-1.15-.02-.26-.05-.53-.07-.79-.23-.82-.3-2-.5-2.89v-.65c-.93-3.58-.07-9.25 1.01-12.41.31-.92.32-1.76.72-2.6.16-.32.45-.73.58-1.08.12-.31.06-.55.22-.79.2-.31.57-.65.72-1.01.05-.26.1-.53.14-.79.14-.24.51-.46.65-.72.33-.59.54-1.07.87-1.66.13-.23.44-.42.58-.65.11-.18.03-.37.14-.58.27-.51.99-.75 1.3-1.23.05-.17.1-.34.14-.5.32-.49.9-.81 1.3-1.23.17-.18.21-.44.36-.65.32-.44.85-.75 1.3-1.08.27-.2.32-.66.58-.87.69-.53 1.5-.89 2.16-1.44.17-.14.24-.44.43-.58.48-.35 1.07-.45 1.59-.79.66-.43 1.38-1.08 2.09-1.44.42-.22.85-.18 1.3-.36.55-.22.96-.85 1.52-1.08.76-.31 1.46-.3 2.31-.58.49-.16.96-.61 1.37-.79.42-.19 1.03-.13 1.3-.22.75-.23 1.68-.45 2.45-.65.95-.25 2.89.08 3.54-.29 1.16.28 3.62-.33 4.98 0 .71.17 1.6-.04 2.38.14.51.12 1.16 0 1.73.14.77.2 1.69.37 2.45.58.36.05.72.1 1.08.14.49.16.96.59 1.44.79s.91.11 1.44.29c1.13.39 2.12 1.08 3.1 1.59.5.26 1.05.29 1.52.58.44.27.87.87 1.23 1.08.37.22.75.22 1.08.43.29.18.52.54.79.72 2.48 1.66 4.6 3.6 6.28 6.06.31.45.92.77 1.23 1.23.19.28.17.67.36.94l.87.72c.16.24.07.6.22.87.19.34.63.7.79 1.08.02.22.05.43.07.65.19.45.74.76.94 1.23.02.22.05.43.07.65.15.41.58.76.72 1.23.17.57.03 1 .22 1.52.09.24.34.37.43.58.28.67.43 1.63.58 2.17.24.86.38 1.95.51 2.53.02.79.05 1.59.07 2.38.13.52.16 1.02.07 1.44-.1.47.08 1.16.07 1.51-.03.91-.07 2.16-.22 2.82-.05.77-.1 1.54-.14 2.31-.35 1.48-1.18 3.46-1.66 4.98-.1.33.05.41 0 .58-.14.47-.54.88-.72 1.3-.05.24-.1.48-.14.72-.18.36-.61.67-.79 1.01-.05.29-.1.58-.14.87-.14.35-.53.64-.72.94-.15.24-.07.52-.22.79-.14.27-.59.49-.79.72-.32.37-.43.9-.72 1.3-.27.37-.75.64-1.01 1.01-.38.53-.71 1.29-1.23 1.66-.1.02-.19.05-.29.07-.26.24-.32.7-.58.94-.13.12-.36.11-.5.22-.76.55-1.32 1.46-2.09 2.02-.56.4-1.23.69-1.73 1.15-.23.22-.46.54-.72.72-.28.18-.62.12-.94.29-.16.09-.29.33-.43.43-.46.34-1.03.75-1.52 1.01-.59.31-1.29.23-1.8.58-.19.13-.3.46-.5.58-.38.21-.79.12-1.23.29-.35.14-.68.45-1.08.58-.43.07-.87.14-1.3.22-.61.21-1.01.66-1.59.87-.27.09-.32-.05-.51 0-.68.17-1.56.34-2.24.5-1.04.26-1.94 0-3.03.22-.6.12-1.94.07-2.89.07-2.27 0-4.53.06-6.21-.29-.93-.19-1.81-.12-2.67-.43-.46-.17-.85-.57-1.3-.72-.77-.26-1.51-.23-2.31-.5-.39-.13-.84-.45-1.23-.58-.24-.02-.48-.05-.72-.07-.33-.16-.61-.59-.94-.79-.58-.19-1.15-.38-1.73-.58-.76-.45-1.39-1.07-2.16-1.52-.35-.2-1.34-.5-1.59-.72-.31-.28-.45-.76-.79-1.01-.3-.22-.67-.33-.94-.58-.41-.38-.69-.98-1.15-1.3-.19-.13-.48-.13-.65-.29-.37-.34-.58-.87-.94-1.23-.38-.38-.91-.64-1.23-1.08-.17-.24-.19-.54-.36-.79-.25-.36-.8-.53-1.08-.87-.12-.34-.24-.67-.36-1.01-.23-.34-.64-.66-.87-1.01-.07-.22-.14-.43-.22-.65Zm173.69 52.03c-.1.5-.41.9-.58 1.3-.15.37-.08.84-.29 1.16-.16.25-.49.46-.65.72-.2.33-.12.87-.36 1.16s-.68.52-.87.87c-.14.26-.07.57-.22.79-.27.4-.74.73-1.01 1.15-.29.47-.41.94-.72 1.37-.17.14-.34.29-.51.43-.2.3-.23.66-.43.94-.26.35-.71.63-.94 1.01-.05.17-.1.34-.14.5-.31.48-.95.83-1.23 1.3-.07.22-.14.43-.22.65-.22.19-.43.38-.65.58-.75 1-1.51 1.86-2.16 2.96-.51.46-1.01.92-1.52 1.37-.07.19-.14.38-.22.58-.35.49-1.1.72-1.44 1.23-.07.22-.14.43-.22.65-.21.3-.71.43-1.01.65-.38.28-.51.77-.79 1.15-.32.44-.94.67-1.37 1.01-.3.24-.31.74-.58 1.01-.35.36-.97.56-1.37.87-.23.18-.26.47-.43.72-.32.46-1.05.67-1.52 1.01-.36.27-.5.82-.87 1.08-.37.27-.76.38-1.15.65-.55.37-.91 1.06-1.44 1.44-.39.29-.83.43-1.23.72-.18.13-.26.44-.43.58-.61.5-1.39.75-2.02 1.23-.26.2-.41.57-.65.79-.14.05-.29.1-.43.14-.29.18-.52.51-.87.65-.24.09-.39.02-.58.14-.63.42-1.13 1.12-1.8 1.51-.47.27-1.01.26-1.44.58-.42.31-.89.85-1.37 1.15-.46.3-1.06.28-1.52.58-.14.17-.29.34-.43.51-.22.05-.43.09-.65.14-.2.12-.38.45-.58.58-.48.19-.96.39-1.44.58-1.01.8-1.97 1.16-3.32 1.66-.52.19-.86.76-1.37.94h-.58c-.35.12-.69.49-1.01.65-.49.25-1.08.16-1.59.36-.31.22-.62.43-.94.65-1.22.54-2.55.74-3.83 1.3-.39.17-.8.57-1.23.72-.57.2-1.04.08-1.59.29-.4.15-.9.38-1.37.51-.53.13-.9.04-1.37.22-.43.17-.8.58-1.23.72-.31.03-.62.05-.94.07-.69.2-1.51.46-2.24.65-.67.07-1.35.14-2.02.22-.82.21-1.56.56-2.24.79-.46.05-.92.1-1.37.14-.86.22-1.85.34-2.81.58-.46.02-.91.05-1.37.07-1.53.36-3.08.01-4.62.36h-1.01c-1.12.26-2.14.2-3.17.43h-1.37c-1.96.49-4.47.49-6.35.07-.44-.1-.87.06-1.15 0-1.11-.24-2.45-.19-3.54-.43h-.94c-.61-.14-1.51-.19-2.17-.22h-1.37c-1.83-.43-3.82-.36-5.56-.79-.36-.02-.72-.05-1.08-.07-.97-.25-1.83-.68-2.81-.94-.58-.05-1.15-.1-1.73-.14-.56-.15-1.13-.36-1.73-.5-.46-.05-.91-.1-1.37-.14-.59-.22-1.12-.71-1.73-.94-.51-.19-.93-.06-1.52-.22-.74-.2-1.51-.48-2.24-.72-.19-.06-.38.02-.43 0-.41-.21-.75-.69-1.23-.87-.6-.1-1.2-.19-1.8-.29-.35-.12-.75-.44-1.08-.58-.53-.22-1.21-.32-1.52-.51-.17-.1-.3-.34-.51-.43-.48-.21-.98-.19-1.44-.43-.32-.16-.67-.49-1.01-.65-.29-.05-.58-.1-.87-.14-.12-.09-.21-.35-.36-.43-.61-.32-1.33-.32-1.95-.65-.64-.34-1.22-.99-1.88-1.3-.47-.22-1.06-.23-1.52-.51-.64-.38-1.3-.98-1.95-1.37-.42-.25-.86-.27-1.3-.5-.16-.09-.29-.33-.43-.43-.25-.17-.55-.19-.79-.36-.14-.17-.29-.34-.43-.5-.45-.31-1.1-.37-1.52-.72-.56-.47-1.09-1.07-1.73-1.44-.24-.07-.48-.14-.72-.22-.19-.12-.29-.4-.51-.51-.18-.09-.36-.03-.5-.14-.12-.22-.24-.43-.36-.65-.23-.15-.48-.08-.72-.22-.34-.19-1.37-1.01-1.66-1.3-.14-.14-.19-.39-.36-.5-.46-.31-1.01-.4-1.44-.72-.28-.21-.4-.62-.65-.87-.4-.39-.98-.53-1.44-.87-.33-.24-.41-.6-.65-.94-.32-.46-1.14-.74-1.59-1.08-.22-.31-.43-.63-.65-.94-.51-.42-1.13-.69-1.59-1.15-.4-.4-.63-.95-1.08-1.3-.25-.19-.69-.25-.87-.51s-.15-.58-.36-.79c-.31-.31-.74-.52-1.08-.79-.25-.19-.25-.52-.43-.79l-.87-.72c-.29-.39-.5-.74-.79-1.15-.26-.22-.53-.43-.79-.65-.25-.35-.4-.67-.65-1.01-.46-.43-.91-.87-1.37-1.3-.18-.25-.22-.64-.43-.87-.27-.29-1.04-.81-1.23-1.08-.1-.27-.19-.53-.29-.79-.24-.35-.69-.6-.94-.94-.32-.44-.49-.92-.79-1.37-.16-.23-.53-.48-.65-.72-.02-.17-.05-.34-.07-.5-.34-.31-.67-.63-1.01-.94l-.36-1.08c-.23-.35-.69-.65-.94-1.01-.17-.25-.18-.56-.36-.79-.28-.35-.68-.81-.87-1.23-.05-.22-.1-.43-.14-.65-.23-.41-.84-.73-1.01-1.16-.68-1.71-.8-5.26.07-6.85.08-.15.32-.24.43-.36.2-.22.19-.62.36-.87.42-.59 2.2-2.01 2.89-2.31.65-.28 1.98-.21 2.53-.58 2.08 0 4.02.37 5.12 1.3.17.15.25.44.43.58.41.31 1.12.63 1.37 1.08.02.17.05.34.07.5.13.32.47.52.65.79.25.39.32.84.58 1.23.24.35.64.71.87 1.08.16.25.13.55.29.79.28.43.81.8 1.08 1.23.11.17.04.39.14.58.23.41.76.68 1.01 1.08.07.26.14.53.22.79.28.44.93.7 1.23 1.15.07.22.14.43.22.65.29.26.58.53.87.79.18.25.19.52.36.79.36.58 1.2.94 1.59 1.52.15.22.14.51.29.72.31.43.95.67 1.3 1.08.16.18.15.45.29.65.25.38.72.59 1.08.87.32.25.41.68.65 1.01.21.29.57.43.87.65.57.42.86 1.26 1.44 1.66.25.17.56.18.79.36.31.41.63.82.94 1.23.56.42 1.2.7 1.73 1.15.24.2.32.6.58.79.46.33 1.05.47 1.44.87.24.24.38.59.65.79.57.42 1.24.67 1.8 1.08.26.29.53.58.79.87.33.23.67.29 1.01.51.23.14.42.44.65.58.19.05.38.1.58.14.19.14.31.44.51.58.43.31.92.42 1.37.72.29.19.64.43.94.65.08.06.07.23.14.29.41.36 1.11.46 1.59.72.76.43 1.53 1.12 2.31 1.51.45.23.9.19 1.3.43.71.44 1.53 1.11 2.31 1.44.53.23 1.1.17 1.59.43.69.36 1.43.9 2.17 1.23.77.22 1.54.43 2.31.65.72.31 1.57.81 2.24 1.15.69.36 1.62.18 2.45.43 1.29.39 2.68 1.19 3.97 1.59 1.18.14 2.36.29 3.54.43.65.19 1.52.36 2.16.58.09-.02.34-.07.58 0 .96.27 1.88.61 2.96.87 1.49.07 2.98.14 4.47.22.79.19 1.83-.07 2.74.14.31.07.97.23 1.3.22 1.5-.05 2.92-.07 4.4-.07.86 0 1.83.1 2.6-.07.56-.12 1.33.03 1.8-.07h1.15c.92-.22 1.89-.04 2.67-.22H142c.82-.07 1.64-.14 2.45-.22 1.85-.47 3.8-.92 5.77-1.44.87-.1 1.73-.19 2.6-.29.8-.23 1.5-.63 2.16-.94.52-.23 1.11-.05 1.66-.29.2-.09.54-.34.79-.43.62-.1 1.25-.19 1.88-.29.48-.18.98-.62 1.44-.79.49-.18.78-.17 1.23-.36.22-.1.43-.35.65-.43.46-.18.85-.04 1.37-.22.86-.29 1.67-.97 2.45-1.37.63-.33 1.4-.32 2.02-.65.66-.35 1.36-.99 2.02-1.37.31-.07.63-.14.94-.22.77-.33 1.54-1.01 2.24-1.44.46-.29 1.06-.33 1.52-.65.08-.06.07-.22.14-.29.19-.17.51-.15.72-.29.34-.22.61-.64.94-.87.34-.12.67-.24 1.01-.36.37-.31.66-.73 1.08-1.01.46-.31.99-.47 1.44-.79.5-.36.92-.95 1.44-1.3.4-.27.82-.37 1.23-.65.29-.2.33-.63.58-.87.41-.39 1.05-.53 1.51-.87.38-.28.61-.75.94-1.08.41-.41 1.11-.53 1.51-.94.23-.23.28-.64.5-.87.41-.41.98-.65 1.44-1.01.19-.31.38-.63.58-.94.46-.36 1.14-.57 1.44-1.08.12-.21.07-.4.22-.58.1-.12.3-.12.43-.22.19-.24.38-.48.58-.72.23-.17.57-.25.72-.5.24-.4.29-.74.65-1.01.26-.19.6-.32.79-.58 1.12-1.48 2.28-2.85 3.32-4.4.25-.38.76-.64 1.01-1.01.16-.25.06-.59.22-.87.23-.4.88-.68 1.15-1.08.17-.25.19-.53.36-.79.23-.35.67-.72.87-1.08.14-.26.07-.57.22-.79.23-.36.72-.56.94-.94.05-.29.1-.58.14-.87.14-.12.29-.24.43-.36.1-.14.04-.27.14-.43.28-.46.81-.83 1.15-1.23.21-.25.26-.58.5-.79.34-.3.81-.42 1.16-.72.12-.11.22-.35.36-.43 1.38-.82 4.14-.91 5.77-.43.74.21 1.37.29 1.95.65.4.25.66.7 1.01 1.01.24.21.6.32.79.58.96 1.28 2.13 3.86 1.66 6.28Z" class="cls-1"/><path d="M55.93 113.23c.12.46.36 1.19.43 1.52.16.7.12 1.43.43 2.02.12.22.46.42.58.65.21.4.14.89.36 1.3.06.11.29.24.36.36.26.42.37.83.65 1.23.35.5.96.88 1.3 1.37.15.22.13.51.29.72s.51.28.72.43c.19.22.38.43.58.65.14.05.29.1.43.14.23.18.25.62.51.79.4.28.9.32 1.3.58.73.48 1.36 1.16 2.24 1.52a65 65 0 0 1 1.37.22c.18.07.4.36.58.43.43.18 1.27.05 1.73.22.4.15.84.46 1.23.58.84.27 1.75.15 2.67.14h2.45c.48-.13.9-.44 1.3-.58.48-.17.97-.07 1.44-.29.32-.15.79-.45 1.15-.58.63-.21 1.19-.15 1.73-.43.5-.26.88-.71 1.3-1.01.38-.27.81-.32 1.23-.58.53-.32.89-.94 1.37-1.3.4-.3 1.01-.54 1.3-.94.19-.25.25-.54.43-.79.36-.34.72-.67 1.08-1.01.12-.34.24-.67.36-1.01.22-.33.64-.62.79-1.01.05-.22.1-.43.14-.65.16-.24.45-.42.58-.72.17-.39.06-.76.22-1.23.27-.81.55-1.87.72-2.67v-1.08c.52-2.21-.17-4.95-.79-6.64.2-.91-1.21-2.99-1.66-3.68-.9-1.38-1.68-2.54-3.03-3.46-.22-.29-.43-.58-.65-.87-.68-.5-1.47-.74-2.17-1.23-.14-.22-.29-.43-.43-.65-.64-.42-1.75-.42-2.53-.72-.97-.37-2.09-.99-3.1-1.3-1.19-.36-3.05-.17-4.47-.14-.35.22-1.71.07-2.16.22-.49.15-.97.48-1.44.65-.56.2-.98.15-1.52.36-.16.07-.34.29-.5.36-.51.1-1.01.19-1.52.29-.56.25-1.26 1.07-1.8 1.44-.33.23-.82.27-1.15.5-.63.45-1.11 1.19-1.66 1.73-.19.14-.38.29-.58.43-.07.22-.14.43-.22.65-.41.38-.82.77-1.23 1.16-.31.45-.36.96-.65 1.44-.08.13-.3.28-.36.43-.02.19-.05.39-.07.58-.18.46-.61.88-.79 1.3-.05.24-.1.48-.14.72-.48 1.2-1.16 3.98-.79 5.7.02.58.05 1.15.07 1.73ZM103.91 313.77c-.43-.33-.99-.76-1.52-.94-.63-.21-1.23.16-1.95 0-.44-.1-.94-.15-1.52-.14-.52.34-1.91.07-2.74.07-2.29.03-4.57.05-6.86.07-6.09-.02-12.17-.05-18.26-.07h-5.7c-.93 0-2.13-.06-2.74.07-.38.08-.96-.03-1.23-.07-.75.03-1.49.05-2.24.07-.33-.07-1.6-.19-2.16 0-.63.21-1.03.59-1.44 1.01-.3.31-.94 1.14-.79 1.81.15.68.47.96.87 1.37.41.43.77.93 1.37 1.16.58.22 1.37-.08 1.95 0 .87.02 1.73.05 2.6.07.54-.13 1.33-.23 2.02-.07.64.14 1.74-.22 2.67 0s3 .23 4.04 0c.57-.13 1.33.05 1.8.07 1.23-.02 2.45-.05 3.68-.07 2.81 0 5.66.24 8.37 0 1.37-.12 2.66.34 3.9.07h1.73c1.64 0 3.64.13 4.76 0 2-.24 4.5.21 5.99-.07.99-.19 1.45.27 2.24-.14.23-.12.38-.43.58-.58.33-.25.77-.48.94-.87.26-.59.1-1.54.07-2.16-.14-.22-.29-.43-.43-.65ZM49.58 300.49c-1.37-.32-3.93.36-4.69-.29-.18-.08-.21-.18-.36-.29 0-1.77-.14-3.21-.14-5.2 0-1.31.12-2.73 0-3.32-.02-.5-.05-1.01-.07-1.51-.2-.6-.76-.79-1.08-1.23-.14-.2-.19-.49-.36-.65-.51-.47-1.77-.37-2.74-.36-.22.07-.43.14-.65.22-.3.18-1.6 1.61-1.73 1.95-.02.34-.05.67-.07 1.01-.4 1.55-.14 4.07-.14 6.06v10.75c0 1.58-.11 3.71 0 4.83.24 2.52-.33 4.24.79 5.92.23.34 2.28 1.33 2.96 1.15.5-.13 2.23-.92 2.45-1.3.88-1.5.65-4.2.65-6.57 0-.68-.05-1.53.07-2.09v-1.8c.1-.38.33-.72.43-1.08.55-.14 1.39-.45 2.16-.29.4.09 1.3.19 1.8.07.76-.18 1.63-.39 2.31-.65.14-.17.36-.35.43-.58v-.65c.12-.31.42-.64.5-1.01.1-.42-.2-.7-.29-.94-.5-1.37-.73-1.81-2.24-2.17ZM42.65 341.12c-.27.03-.86-.12-1.3 0-1.08.28-1.84 1.08-2.96 1.44-1.16.37-2.39.29-3.61.65-.4.12-.93.37-1.3.5-.53.2-.98.06-1.59.22-1.41.35-4.66.64-6.57.22h-1.23c-.79-.1-1.59-.19-2.38-.29-.45-.14-.94-.44-1.37-.58-.7-.22-1.36-.14-2.09-.36-.53-.16-1.04-.59-1.52-.79-.14-.02-.29-.05-.43-.07-.35-.2-1.11-1.25-1.44-1.59 0-.63.03-1.21.29-1.59.63-.92 2.1-.94 3.68-.94h12.48c.83 0 1.89.08 2.6-.07.94.03 1.88.05 2.81.07 1.05-.25 2.12-.22 3.03-.58.51-.2.95-.77 1.37-1.08 1.76-1.29 2.55-2.38 3.17-4.83.22-.87-.02-3.96-.29-4.62-.13-.31-.44-.64-.58-.94-.13-.29-.06-.55-.22-.79-.3-.47-.91-.89-1.3-1.3-.3-.32-.53-.8-.94-1.01-.39-.2-.81-.15-1.15-.36-.3-.19-.53-.47-.94-.58-.6-.16-1.14-.17-1.66-.29h-1.52c-.39-.09-1.09-.27-1.66-.14-.58.13-1.36.05-2.31.07-1.33.02-2.86 0-4.62 0-4.88 0-8.9-.09-13.57-.07-.45.27-1.37-.07-1.95.07-.38.09-1.57.52-1.88.72-.26.17-.33.53-.5.79-1.57 2.26.35 4.24 2.53 4.76h1.08c1.25.27 3.3 0 4.76 0H30.2c1.47 0 3.12-.05 4.47.07.69.06 1.7-.16 2.16.14.79.08 1.02.77 1.44 1.23 0 .8-.19 1.52-.58 1.95-.33.83-1.94.79-3.1.79H28.1c-1.65 0-4.32.22-5.85 0-.43.02-.87.05-1.3.07-1.16-.27-4.71-.17-5.77.07-.6.14-1.01-.02-1.59.14-1.77.51-3.81 2.21-4.47 3.82-.02.29-.05.58-.07.87-.04.09-.25.33-.29.43-.47 1.25-.19 3.27.22 4.26.19.45.1.9.29 1.3.1.23.39.44.51.65.07.24.14.48.22.72.43.41.87.82 1.3 1.23.7.92 1.74 1.32 2.74 1.95.41.25.92.68 1.37.87.51.21 1.05.09 1.59.29.55.2 1.04.61 1.59.79.41.14.76.02 1.23.14 2.63.7 4.92.8 8.15.79 1.51 0 3.09.07 4.33-.22.41-.02.82-.05 1.23-.07.42-.12.95-.43 1.37-.5.68-.12 1.61-.08 2.31-.36.33-.13.79-.45 1.15-.58.58-.07 1.15-.14 1.73-.22 1.13-.33 2.19-1.06 3.17-1.52.53-.24 1.04-.3 1.44-.65.23-.19.69-1.19.79-1.52.17-.52.07-.92-.07-1.37-.46-1.45-.96-2.46-2.81-2.24ZM85.73 294.93c.52-.32 2.63-.14 3.46-.14.65-.02 1.3-.05 1.95-.07.58.12 1.66.12 2.24 0h2.24c1.38-.35 2.38-1.39 2.67-2.81.09-.44-.26-.86-.36-1.15-.11-.31-.05-.69-.22-.94-.52-.78-3.26-1.52-4.91-1.15-.57.13-1.37.01-1.95 0h-4.83c-5.1 0-9.8-.01-14.43 0-.14.09-.36.01-.58.07-.46.12-1.04.32-1.52.43-.52.12-.83 0-1.3.14-.91.28-1.52 1.15-2.24 1.66-.25.18-.6.18-.87.36-.38.26-.32.76-.58 1.15-.17.14-.34.29-.51.43-.34.47-.68 1.06-.94 1.59-.05.29-.1.58-.14.87-.56 1.51-1.18 3.51-.5 5.41.17.49.39 1.24.65 1.73.07.13.29.28.36.43.05.24.1.48.14.72.21.41.69.65.94 1.01.31.45.35.92.79 1.23.53.37 1.06.57 1.59.94.37.25.65.74 1.08.94.24.02.48.05.72.07.39.11.93.32 1.3.43.62.18 1.39.08 2.02.22.84-.03 1.68-.05 2.53-.07 1.1.26 4.95.17 5.84 0 .32-.06.8.03 1.01.07h1.37c.82 0 1.33.2 2.24 0h1.23c1.3 0 2.95.18 4.11-.07.58-.13 1.62-.03 2.09.07.78.17 2.59 0 3.25-.14.24-.02.48-.05.72-.07.43-.19 1.19-.78 1.37-1.23.02-.17.05-.34.07-.51.13-.32.5-.82.36-1.37-.28-1.09-.84-2.06-1.73-2.53-.46-.24-1.72-.39-2.45-.22-.13.03-.48.13-.72.07-2.25-.52-6.34.49-8.08-.51-.31-1.21-.24-3.91-.14-4.91.1-.97-.23-1.89.65-2.17Zm-6.71 5.56v1.37c-.22.34-.82.4-1.3.5-.68.15-3.08.07-4.55.07h-1.66c-.59-.15-1.41-.44-1.73-.87-.42-.56-1.09-1.25-1.3-1.95-.64-2.19 1.3-4.35 2.74-4.76.9-.26 2.28-.07 3.32-.07.39 0 1.04.08 1.3-.07 1.31 0 2.34.09 3.17.58.08.42-.11.81 0 1.3.1.43.21 3.53 0 3.9ZM95.98 341.12c-.42.09-.73 0-1.08.14-.43.18-.89.64-1.3.79-.24.02-.48.05-.72.07-.38.14-.78.45-1.15.58-.73.24-1.42.14-2.24.36-.77.21-1.59.5-2.31.72-.87.26-1.49.17-2.31.36h-1.23c-1.25.3-3.44.27-4.47.07-1.26-.24-2.48.02-3.61-.29-.48-.13-.93-.44-1.37-.58-.8-.25-1.48-.18-2.31-.43-1.04-.31-2-.93-2.6-1.73-.2-.27-.45-.35-.58-.72-.44-.66.89-1.76 1.3-1.88.38-.24.99-.03 1.52-.14 1.31-.29 3.25-.12 4.62-.07 1.5.05 3.79.22 5.12-.07 1.92.02 3.85.05 5.77.07 1.95 0 4.84.15 6.21-.43.31-.13 1.23-.53 1.52-.72.44-.3.67-.91 1.08-1.23.39-.3.92-.58 1.16-1.01.14-.24.07-.51.22-.72.18-.27.51-.46.65-.79.13-.31-.02-.7.07-1.08.1-.38.4-.85.43-1.23.09-.96-.39-3.74-.79-4.4-.22-.36-.68-.7-.87-1.08-.11-.22-.02-.4-.14-.58-.16-.23-.56-.33-.79-.5-.72-.54-1.34-1.46-2.24-1.8-.49-.19-1 0-1.59-.14-1.46-.37-3.32-.38-5.12-.36-.28.17-1.03.07-1.44.07H72.04c-1.3 0-3.55.22-4.55 0h-1.37c-2.02 0-2.75.5-3.32 1.95-.12.31-.52.76-.36 1.3.3.98.93 2.17 1.88 2.53.66.25 1.44 0 2.24.14.87.16 2.67.07 3.9.07h17.1c.41-.09 1.18-.09 1.59 0 .68.15 1.01-.15 1.66.07.42.14.65.57.87.94.23.39.68 1.08.36 1.8-.21.47-.8.68-1.08 1.08-4.95.35-10.54.14-15.73.14-4.91 0-9-.31-11.11 2.53-.29.4-.83.81-1.01 1.3-.02.26-.05.53-.07.79-.09.29-.35.63-.43.94-.08.3-.22 2.31-.14 2.6.14.39.29.77.43 1.15.02.31.05.63.07.94.14.35.47.65.65.94.07.24.14.48.22.72.46.43.91.87 1.37 1.3.27.36.62.79 1.01 1.01.24.14.5.08.72.22.4.26.79.71 1.23.94.93.48 1.87.56 2.96.94.55.26 1.11.53 1.66.79h.72c.8.23 1.88.51 2.74.72h1.08c1.54.36 3.59.03 5.2.07 3.55.09 6.85-.52 9.45-1.59.58-.1 1.15-.19 1.73-.29.78-.26 1.7-.53 2.45-.87.25-.11.48-.4.72-.5.57-.26 1.46-.39 1.8-.87.07-.22.14-.43.22-.65.28-.55.89-1.18.58-2.09-.46-1.34-1.44-2.77-3.46-2.31ZM12.27 317.3c.6.17 1.7.51 2.6.29.99-.25 1.5-.26 2.53-.51.55-.13.98-.02 1.44-.22 1.34-.56 3.15-1.41 4.26-2.24.45-.34.82-.9 1.23-1.3.26-.22.53-.43.79-.65.56-.82.96-1.61 1.52-2.45.23-.35.7-.71.87-1.08.1-.58.19-1.16.29-1.73.67-2.14.65-5-.07-7.07-.17-.5-.03-1.14-.22-1.59-.36-.86-1.02-1.66-1.52-2.38-.18-.25-.12-.58-.29-.87-.19-.34-.69-.5-.94-.79-.41-.48-.76-1.18-1.3-1.52-.29-.1-.58-.19-.87-.29-.65-.43-1.28-1.05-1.95-1.44-.42-.25-.86-.19-1.37-.36-1.72-.56-3.58-1.06-5.77-1.01-.53.35-1.18.02-1.95.22-.72.19-1.48.45-2.17.65-.52.16-.88.1-1.37.29-.57.23-.9.78-1.37 1.08-.67.43-1.61.68-2.16 1.23-.22.22-.25.53-.43.79l-1.44 1.23c-.27.45-.38.86-.65 1.3-.31.5-.86 1.02-1.08 1.59-.19.49-.09 1-.29 1.51-.12.31-.41.65-.5 1.01v1.16c-.01.69.02 2.02 0 2.89-.02 1.14.35 2.53.72 3.54-.01.06-.08.43 0 .65.18.49.8.78 1.01 1.23.02.17.05.34.07.5.44.81 1.27 1.38 1.8 2.09.16.22.3.55.5.72.19.15.44.15.65.29.31.21.48.65.79.87.68.48 1.45.72 2.16 1.15.61.37 1.32.73 2.09.94.86.23 1.71.09 2.38.29Zm-4.69-9.96c-.25-.43-.24-1-.43-1.44-.81-1.83-.47-2.58 0-4.18.1-.33-.01-.61.14-.87.19-.31.6-.56.79-.87.1-.29.19-.58.29-.87.29-.4.71-.46 1.15-.72.71-.43 1.33-1.1 2.16-1.44l2.02-.36c1.78.02 3.11.17 4.19.94.17.19.34.38.5.58.48.35 1.26.66 1.59 1.16.1.26.19.53.29.79.23.35.71.68.87 1.08 1.68 4.21-1.37 8.17-4.26 9.45-.5.22-.93.06-1.52.22-.31.08-.88.29-1.23.29-2.62-.02-5.37-1.7-6.57-3.75ZM241.24 289.45c-.61-.81-1.91-.93-3.17-.94-.17.11-.47 0-.72.07-.58.16-1.71.9-1.95 1.37-.47.92-.25 2.14-.5 3.32v1.23c-.08.33-.32.67-.43.94-.36.82-.32 1.79-.58 2.53-.1.29-.38.64-.5.94-.13.31-.05.76-.22 1.08-.18.36-.65.55-.87.87-.1.31-.19.62-.29.94-.14.12-.29.24-.43.36-1.2 1.65-2.48 3.11-4.11 4.33-.45.33-.77.89-1.23 1.23-.59.43-1.17.67-1.8 1.08-.28.18-.52.54-.79.72-.39.14-.77.29-1.16.43-.37.23-.72.64-1.08.87-.54.34-1.2.45-1.73.79-.54.35-.87.99-1.37 1.37-.03.58-.02 1.21 0 1.8 1.51 1.43 2.21 1.16 4.26.58.56-.16.94-.1 1.44-.29 4.22-1.62 8.3-4.07 11.26-7 .46-.46.76-.9 1.15-1.44.41-.39.82-.77 1.23-1.15.22-.41-.03-.69.43-.87.24-.17.46-.09.87-.07.14.12.29.24.43.36.02.19.05.38.07.58.2.36.75.55 1.01.87.24.29.32.74.58 1.01.39.41 1.17.87 1.51 1.3.18.22.28.55.51.72 1.71 1.27 3.5 2.56 5.34 3.68.77.47 1.85.6 2.67 1.01.75.38 1.51.86 2.38 1.15a65 65 0 0 1 1.37.22c.7.23 1.66.7 2.6.36.46-.17.99-.71 1.37-1.01 0-.53.12-1.41-.07-1.8-.19-.38-.91-1.19-1.3-1.37-.28-.13-.56-.07-.79-.22-1.26-.77-2.6-1.65-3.82-2.45-.22-.07-.43-.14-.65-.22-.17-.11-.28-.38-.43-.51-.38-.3-.91-.49-1.3-.79-.14-.19-.29-.38-.43-.58-2.98-2.12-5.27-5.15-6.78-8.73-.02-.26-.05-.53-.07-.79-.19-.58-.55-1.25-.72-1.88-.21-.77-.18-2.05-.29-2.6v-1.37c-.16-.64-.5-1.53-.87-2.02ZM153.2 318.24c-1.57-.07-3.8-.07-5.99-.07H117.7c-1.02 0-2.52.21-3.39-.07-.35.21-1.31.07-1.8.07-1.27 0-2.57.14-3.1.87-1.17 1.59-.3 3.82 1.23 4.4 1.45.55 4.66.12 6.49.14 3.23.04 8.06.15 11.76.14 1.11 1.18.46 1.52.72 3.39.47 3.4-1.11 10.48 1.44 12.34.39.28 1.02.49 1.37.58 2.16.56 3.75-.8 4.26-2.17.23-.62.07-2.01.07-2.96v-6.49c0-1.49-.17-4.15.58-4.62.23-.15.62 0 .94-.07 1.28-.3 2.85.22 4.11-.07 1.24-.29 2.69.31 4.04 0 1.05-.25 2.25.27 3.39 0 .74-.17 1.87 0 2.81 0 1.44 0 2.72-.17 3.97-.22.42-.44 1.23-.91 1.44-1.52.15-.2.27-1.1.07-1.37.04-2.69-2.4-2.19-4.91-2.31Z" class="cls-1"/><path d="M262.02 324.52c-.22-.02-.43-.05-.65-.07-1.21-.43-3.2-.29-4.84-.29h-9.16c-.97 0-3.67.23-4.26-.14-1.43-.18-1.01-4.25-1.01-5.99 0-3.35-.47-5.4-4.04-5.41-.31.19-1.02.2-1.37.36-.69.3-1.23 1.1-1.52 1.8-.22.54-.04 1.48-.14 1.95-.5 2.3.4 5.5-.58 7.22-.96.38-3.58.22-5.05.22h-10.61c-2.41 0-3.95-.07-4.76 1.59-.15.3-.37 1.01-.22 1.59.73 2.78 3.51 2.31 6.93 2.31 1.08.02 2.16.05 3.25.07.4-.09 1.11-.06 1.51 0 .92.14 1.92-.07 2.74-.07.89.02 1.78.05 2.67.07 2.08-.31 4.42.13 6.57 0 2.78-.16 6.9-.14 10.25-.07 1.22.02 2.55-.12 3.9 0 .47.04 1.26.11 1.73 0 .59-.13 1.39.05 1.88.07 1.3-.02 2.6-.05 3.9-.07.64 0 1.5.12 2.02-.07 1.05-.38 1.86-1.34 2.17-2.45.16-.6-.26-.95-.43-1.23-.34-.54-.23-1.13-.87-1.37ZM127.87 299.41c-.2.51-.29.83-.58 1.23-.14.12-.29.24-.43.36-.1.26-.19.53-.29.79-.27.41-.86.63-1.15 1.01-.17.22-.2.5-.36.72-.29.4-.9.64-1.3.94-.5.37-.86 1.01-1.37 1.37-.49.35-1.03.53-1.52.87-.4.27-.75.76-1.15 1.01-.25.16-.59.08-.87.22-.34.17-.71.52-1.01.72-.24.16-.5.08-.79.22-.05.07-.1.14-.14.22-.28.15-.56.11-.79.29-.51.38-.97 1.68-.58 2.6.91 2.15 3.97 1.33 5.84.65.75-.27 1.41-.69 2.09-.94.54-.2.94-.17 1.37-.43.49-.3 1.02-.72 1.52-1.01.55-.33 1.2-.38 1.73-.72.67-.44 1.16-1.19 1.8-1.66.27-.2.67-.32.87-.58.18-.23.23-.59.43-.79.26-.27.62-.36.94-.58.25-.18.46-.55.65-.79 1.35.07 2.04 1.48 2.74 2.24.43.46 1.07.71 1.59 1.08.17.12.21.36.36.51.61.61 1.48.75 2.24 1.23.47.29 1.01.75 1.51 1.01.81.43 1.68.45 2.53.87.63.31 1.48.69 2.16.94 1.86.68 4.07.67 4.69-1.08.08-.21.26-1.15.07-1.44-.12-1.16-2.34-2.05-3.32-2.45-.29-.12-.61-.07-.87-.22-.36-.22-.66-.64-1.01-.87-.66-.43-1.37-.64-2.02-1.08-.28-.2-.45-.59-.72-.79-.89-.67-1.72-1.11-2.38-2.02l-1.3-1.15c-.24-.34-.28-.82-.5-1.15-.13-.19-.38-.39-.51-.58-.19-.3-.08-.61-.22-1.01-.26-.76-1.04-1.52-.87-2.45.07-.35-.08-.84.07-1.08.26-.71 2.82-.58 4.04-.58 3.13 0 7.81.75 8.66-1.66-.06-.26.1-1.3 0-1.59-.23-.71-.82-.65-1.3-1.08-.18-.16-.29-.45-.5-.58-.39-.22-1.13-.14-1.59-.07-1.23-.02-2.45-.05-3.68-.07-2.12-.02-4.23-.05-6.35-.07h-7.58c-1.05 0-2.79-.04-3.17 0-.86.08-2.57.22-3.25 0-.66.4-2.65-.15-3.54.07-.78.19-1.85.92-2.09 1.66-.37.56.16 2.32.36 2.6.15.2.43.22.65.36 1.01.63 2.34.43 3.97.43 2.54 0 5.48-.07 7.29.36.29 1.18-.07 2.49-.58 3.32-.13.22-.41.47-.5.72ZM173.55 305.04c.44.74.61 1.53 1.08 2.24.31.47.88.74 1.23 1.15.19.23.24.56.43.79.36.44 1.11.81 1.59 1.16.36.26.62.7 1.01.94.54.34 1.13.38 1.73.65 1.9.85 2.8 1.41 5.63 1.44.39 0 .86.12 1.08.07.76-.17 1.8-.12 2.6-.36 1-.31 2.09-.86 2.96-1.3.5-.26.99-.29 1.44-.58.48-.3.85-.85 1.3-1.15.51-.35 1.03-.52 1.44-.94.2-.2.26-.49.43-.72.27-.38.76-.69 1.01-1.08.09-.26.19-.53.29-.79.22-.35.68-.64.87-1.01.05-.34.1-.67.14-1.01.12-.29.4-.67.5-.94.54-1.37.78-4.7.36-6.35-.21-.84-.58-1.62-.87-2.31-.1-.46-.19-.91-.29-1.37-.19-.34-.58-.63-.79-.94-.16-.24-.14-.46-.29-.72-.34-.58-1.05-1.04-1.44-1.59-.18-.25-.26-.54-.51-.72-.22-.16-.49-.2-.72-.36-.1-.12-.19-.24-.29-.36-.22-.07-.43-.14-.65-.22-.39-.23-.67-.77-1.08-1.01-.28-.17-.61-.07-.94-.22s-.81-.45-1.15-.58c-.19-.02-.39-.05-.58-.07-1.59-.59-2.96-1.06-5.34-1.01l-2.09.36c-1.04.38-2.12.88-3.1 1.23-.51.18-.84.15-1.3.36-.58.27-1.02.94-1.52 1.3-.41.29-1 .47-1.3.87-.27.35-.37.82-.72 1.08-.25.18-.61.27-.79.5-.21.26-.14.52-.29.87-.09.22-.38.39-.5.58-.26.41-.27.84-.5 1.3-.2.38-.57.84-.72 1.3v.58c-.24.87-.67 1.96-.51 2.89v2.31c.11.47.25 1.11.36 1.52v.72c.18.62.51 1.04.79 1.52Zm5.34-6.71c.33-.9.63-2.04 1.15-2.81.38-.56 1.11-.91 1.52-1.44.29-.38.6-.76 1.01-1.01.76-.48 1.87-.37 2.6-.87h2.96c2.7.73 4.85 2.41 5.92 4.76.28.62.36 2.35.29 2.74-.14.79.1 1.62-.14 2.31-.11.29-.36.56-.51.79-.19.31-.2.75-.43 1.01-.35.39-.92.65-1.23 1.08-.13.19-.13.42-.29.58-.31.3-2.4 1.3-2.89 1.44-.95.28-2.25.29-3.25.07h-1.08c-1.62-.44-3.96-2.16-4.69-3.46-.21-.38-.2-.73-.36-1.15-.48-1.27-1.08-2.69-.58-4.04M209.27 318.24c-.64-.21-1.76.01-2.16 0-.35-.01-1.15-.1-1.59 0h-1.8c-.98-.23-1.7-.07-2.74-.07h-5.99c-6.29 0-12.91 0-18.69-.07-.59.37-1.83-.05-2.6.07-.56.09-1.8 0-2.6 0-1.54.02-3.08.05-4.62.07-1.96 0-3.7.02-4.26 1.37-.61 1.49.11 2.92 1.01 3.54.92.62 2.67.51 4.26.51h4.55c.61 0 1.49-.08 1.88 0 .41.08.65.33 1.01.43.09.33.28.59.36.94-.03.55-.05 1.11-.07 1.66.13.62 0 1.36 0 2.17.02 1.06.05 2.12.07 3.17 0 .66-.12 1.26 0 1.8.14.65-.13 1.34 0 1.95v.87c.14.57.35 1.72.65 2.16.2.3.57.44.87.65.52.36 1.65.94 2.74.65.87-.23 1.91-.69 2.31-1.37.67-1.15.52-2.93.58-4.69.05-1.4 0-3.84 0-5.7 0-1.08-.21-3.46.21-4.11.14-.36.45-.36.79-.51.33-.13 1.35-.07 2.16-.07 1.12 0 2.46.1 3.46.07.17 0 .59-.16.87-.07.31.1.55.34.79.5.93 3.71-.58 10.45.79 14.07.37.98 1.13 1.54 2.16 1.8.44.12.88-.09 1.08-.07.18.02.47.25.79.14.41-.13 1.8-.98 2.02-1.3.38-.57.24-1.39.43-2.16.19-.78.14-1.95.14-3.1v-5.34c0-1.77-.17-3.03.36-4.18.33-.09.62-.28.94-.36h4.04c.42-.09 1.34-.19 1.87-.07.82.18 3.15.23 3.97 0s1.3-.96 1.95-1.37c.05-.35.14-.76.22-1.08.41-1.78-1.19-2.53-2.24-2.89Z" class="cls-1"/></g></svg>